M48
;DRILL file {KiCad 4.0.2-stable} date 8/18/2017 5:34:04 PM
;FORMAT={-:-/ absolute / inch / decimal}
FMAT,2
INCH,TZ
T1C0.032
T2C0.036
T3C0.040
T4C0.045
T5C0.051
T6C0.057
T7C0.064
T8C0.067
T9C0.072
T10C0.081
T11C0.087
T12C0.091
T13C0.102
T14C0.106
T15C0.114
T16C0.126
T17C0.129
T18C0.144
T19C0.162
T20C0.169
T21C0.209
%
G90
G05
M72
T1
X4.4094Y-3.131
T2
X4.4094Y-3.0577
T3
X4.4094Y-2.9802
T4
X4.4094Y-2.8981
T5
X4.4094Y-2.8106
T6
X4.4094Y-2.7173
T7
X4.4094Y-2.6173
T8
X4.1339Y-2.2343
T9
X4.4094Y-2.5099
T10
X4.4094Y-2.3942
T11
X4.1339Y-2.126
T12
X4.4094Y-2.269
T13
X4.4094Y-2.1333
T14
X4.1339Y-1.998
T15
X4.4094Y-1.9858
T16
X4.1339Y-1.8504
T17
X4.4094Y-1.825
T18
X4.4094Y-1.6492
T19
X4.4094Y-1.4567
T20
X4.1339Y-1.6732
T21
X4.1339Y-1.4567
T0
M30
