G04 #@! TF.FileFunction,Soldermask,Top*
%FSLAX46Y46*%
G04 Gerber Fmt 4.6, Leading zero omitted, Abs format (unit mm)*
G04 Created by KiCad (PCBNEW 4.0.2-stable) date 8/4/2017 8:24:58 PM*
%MOMM*%
G01*
G04 APERTURE LIST*
%ADD10C,0.150000*%
%ADD11C,0.200000*%
%ADD12C,0.010000*%
G04 APERTURE END LIST*
D10*
D11*
X103500001Y-35178571D02*
X104500001Y-35178571D01*
X103857144Y-36678571D01*
X94285715Y-35178571D02*
X94000001Y-35178571D01*
X93857144Y-35250000D01*
X93785715Y-35321429D01*
X93642858Y-35535714D01*
X93571429Y-35821429D01*
X93571429Y-36392857D01*
X93642858Y-36535714D01*
X93714286Y-36607143D01*
X93857144Y-36678571D01*
X94142858Y-36678571D01*
X94285715Y-36607143D01*
X94357144Y-36535714D01*
X94428572Y-36392857D01*
X94428572Y-36035714D01*
X94357144Y-35892857D01*
X94285715Y-35821429D01*
X94142858Y-35750000D01*
X93857144Y-35750000D01*
X93714286Y-35821429D01*
X93642858Y-35892857D01*
X93571429Y-36035714D01*
X84357144Y-35178571D02*
X83642858Y-35178571D01*
X83571429Y-35892857D01*
X83642858Y-35821429D01*
X83785715Y-35750000D01*
X84142858Y-35750000D01*
X84285715Y-35821429D01*
X84357144Y-35892857D01*
X84428572Y-36035714D01*
X84428572Y-36392857D01*
X84357144Y-36535714D01*
X84285715Y-36607143D01*
X84142858Y-36678571D01*
X83785715Y-36678571D01*
X83642858Y-36607143D01*
X83571429Y-36535714D01*
X74285715Y-35678571D02*
X74285715Y-36678571D01*
X73928572Y-35107143D02*
X73571429Y-36178571D01*
X74500001Y-36178571D01*
X63500001Y-35178571D02*
X64428572Y-35178571D01*
X63928572Y-35750000D01*
X64142858Y-35750000D01*
X64285715Y-35821429D01*
X64357144Y-35892857D01*
X64428572Y-36035714D01*
X64428572Y-36392857D01*
X64357144Y-36535714D01*
X64285715Y-36607143D01*
X64142858Y-36678571D01*
X63714286Y-36678571D01*
X63571429Y-36607143D01*
X63500001Y-36535714D01*
X53571429Y-35321429D02*
X53642858Y-35250000D01*
X53785715Y-35178571D01*
X54142858Y-35178571D01*
X54285715Y-35250000D01*
X54357144Y-35321429D01*
X54428572Y-35464286D01*
X54428572Y-35607143D01*
X54357144Y-35821429D01*
X53500001Y-36678571D01*
X54428572Y-36678571D01*
X44428572Y-36678571D02*
X43571429Y-36678571D01*
X44000001Y-36678571D02*
X44000001Y-35178571D01*
X43857144Y-35392857D01*
X43714286Y-35535714D01*
X43571429Y-35607143D01*
X33928572Y-35178571D02*
X34071429Y-35178571D01*
X34214286Y-35250000D01*
X34285715Y-35321429D01*
X34357144Y-35464286D01*
X34428572Y-35750000D01*
X34428572Y-36107143D01*
X34357144Y-36392857D01*
X34285715Y-36535714D01*
X34214286Y-36607143D01*
X34071429Y-36678571D01*
X33928572Y-36678571D01*
X33785715Y-36607143D01*
X33714286Y-36535714D01*
X33642858Y-36392857D01*
X33571429Y-36107143D01*
X33571429Y-35750000D01*
X33642858Y-35464286D01*
X33714286Y-35321429D01*
X33785715Y-35250000D01*
X33928572Y-35178571D01*
X109700001Y-77178571D02*
X110628572Y-77178571D01*
X110128572Y-77750000D01*
X110342858Y-77750000D01*
X110485715Y-77821429D01*
X110557144Y-77892857D01*
X110628572Y-78035714D01*
X110628572Y-78392857D01*
X110557144Y-78535714D01*
X110485715Y-78607143D01*
X110342858Y-78678571D01*
X109914286Y-78678571D01*
X109771429Y-78607143D01*
X109700001Y-78535714D01*
X84371429Y-77321429D02*
X84442858Y-77250000D01*
X84585715Y-77178571D01*
X84942858Y-77178571D01*
X85085715Y-77250000D01*
X85157144Y-77321429D01*
X85228572Y-77464286D01*
X85228572Y-77607143D01*
X85157144Y-77821429D01*
X84300001Y-78678571D01*
X85228572Y-78678571D01*
X59828572Y-78678571D02*
X58971429Y-78678571D01*
X59400001Y-78678571D02*
X59400001Y-77178571D01*
X59257144Y-77392857D01*
X59114286Y-77535714D01*
X58971429Y-77607143D01*
X33928572Y-77178571D02*
X34071429Y-77178571D01*
X34214286Y-77250000D01*
X34285715Y-77321429D01*
X34357144Y-77464286D01*
X34428572Y-77750000D01*
X34428572Y-78107143D01*
X34357144Y-78392857D01*
X34285715Y-78535714D01*
X34214286Y-78607143D01*
X34071429Y-78678571D01*
X33928572Y-78678571D01*
X33785715Y-78607143D01*
X33714286Y-78535714D01*
X33642858Y-78392857D01*
X33571429Y-78107143D01*
X33571429Y-77750000D01*
X33642858Y-77464286D01*
X33714286Y-77321429D01*
X33785715Y-77250000D01*
X33928572Y-77178571D01*
D12*
G36*
X52547088Y-39793149D02*
X52018137Y-39866299D01*
X51543757Y-40063474D01*
X51138495Y-40364279D01*
X50816897Y-40748318D01*
X50593510Y-41195193D01*
X50482883Y-41684510D01*
X50499561Y-42195871D01*
X50658093Y-42708881D01*
X50756878Y-43062870D01*
X50946467Y-43374991D01*
X51199431Y-43653166D01*
X51488346Y-43905317D01*
X52064314Y-44363232D01*
X52296514Y-44584841D01*
X52454956Y-44812112D01*
X52117601Y-45394567D01*
X51868852Y-46038619D01*
X51722875Y-46715842D01*
X51693834Y-47397809D01*
X51795894Y-48056094D01*
X52043221Y-48662269D01*
X52225786Y-48936932D01*
X52449980Y-49187908D01*
X52717573Y-49411643D01*
X53030336Y-49604584D01*
X53462463Y-49753130D01*
X53893046Y-49779932D01*
X54317526Y-49708179D01*
X54731344Y-49561058D01*
X55508753Y-49133469D01*
X56188800Y-48682676D01*
X56374761Y-49089220D01*
X56655806Y-49416830D01*
X57007883Y-49658503D01*
X57406937Y-49807238D01*
X57828917Y-49856034D01*
X58249769Y-49797888D01*
X58645440Y-49625799D01*
X58991877Y-49332766D01*
X59226437Y-49622830D01*
X59505207Y-49774497D01*
X59811157Y-49811232D01*
X60127257Y-49756502D01*
X60436476Y-49633772D01*
X60721784Y-49466509D01*
X61152542Y-49092249D01*
X61396559Y-49449347D01*
X61535564Y-49551946D01*
X61682868Y-49609548D01*
X61993280Y-49606678D01*
X62309605Y-49474561D01*
X62613653Y-49247019D01*
X62887235Y-48957879D01*
X63112161Y-48640963D01*
X63270242Y-48330096D01*
X63682400Y-47744213D01*
X64077519Y-47121710D01*
X64490052Y-46526248D01*
X64954451Y-46021488D01*
X65231838Y-46134964D01*
X65298008Y-46217881D01*
X65324227Y-46315908D01*
X65282020Y-46550267D01*
X65155618Y-46823987D01*
X64851838Y-47433296D01*
X64775265Y-47740777D01*
X64816106Y-48031405D01*
X64818530Y-48318870D01*
X64869534Y-48586091D01*
X64963836Y-48831052D01*
X65096154Y-49051742D01*
X65453713Y-49412253D01*
X65899961Y-49651515D01*
X66392647Y-49753423D01*
X66889520Y-49701867D01*
X67126322Y-49613508D01*
X67348327Y-49480743D01*
X67550253Y-49301558D01*
X67726818Y-49073941D01*
X67935756Y-49326938D01*
X68168590Y-49514890D01*
X68420042Y-49641915D01*
X68684836Y-49712131D01*
X68957693Y-49729657D01*
X69233338Y-49698613D01*
X69771876Y-49507284D01*
X69528556Y-49808830D01*
X69341439Y-50146438D01*
X69218608Y-50508819D01*
X69168148Y-50884683D01*
X68853897Y-51142988D01*
X68484349Y-51344040D01*
X67685982Y-51673821D01*
X67310473Y-51852270D01*
X66986286Y-52072903D01*
X66740077Y-52360581D01*
X66598500Y-52740162D01*
X66805527Y-53012137D01*
X67058140Y-53140081D01*
X67339825Y-53156499D01*
X67634062Y-53093897D01*
X68194129Y-52861654D01*
X68606203Y-52703398D01*
X68422691Y-53066495D01*
X68184022Y-53412586D01*
X67641362Y-54085074D01*
X67387447Y-54427134D01*
X67178526Y-54783513D01*
X67039637Y-55162043D01*
X66995818Y-55570554D01*
X67190947Y-55878532D01*
X67429124Y-56050984D01*
X67693602Y-56104648D01*
X67967638Y-56056265D01*
X68234483Y-55922576D01*
X68477394Y-55720321D01*
X68679623Y-55466240D01*
X68824426Y-55177075D01*
X70326843Y-53159282D01*
X71650388Y-51508639D01*
X71589379Y-51745572D01*
X71575130Y-51970933D01*
X71669068Y-52378466D01*
X71896521Y-52714279D01*
X72221804Y-52961416D01*
X72609235Y-53102921D01*
X73023129Y-53121836D01*
X73427805Y-53001204D01*
X73615534Y-52883259D01*
X73787578Y-52724069D01*
X73972672Y-52590486D01*
X74146817Y-52614746D01*
X74318143Y-52742957D01*
X74494779Y-52921232D01*
X74684854Y-53095678D01*
X74896498Y-53212409D01*
X75137840Y-53217532D01*
X75417009Y-53057160D01*
X75701736Y-52770217D01*
X75965302Y-52441818D01*
X76458441Y-51732663D01*
X76955417Y-51073723D01*
X77223778Y-50808092D01*
X77515220Y-50609026D01*
X77739099Y-50747552D01*
X78005091Y-50829321D01*
X78293954Y-50857251D01*
X78586442Y-50834260D01*
X78863310Y-50763266D01*
X79105316Y-50647186D01*
X79293213Y-50488937D01*
X79407759Y-50291438D01*
X79488079Y-50689346D01*
X79539216Y-50958882D01*
X79654032Y-51235009D01*
X79911154Y-51751401D01*
X79971682Y-51963850D01*
X79932338Y-52127255D01*
X79752235Y-52227709D01*
X79390484Y-52251303D01*
X78886426Y-52378665D01*
X78405491Y-52568820D01*
X77948564Y-52813659D01*
X77516529Y-53105077D01*
X76730672Y-53795216D01*
X76054992Y-54574380D01*
X76103140Y-54770267D01*
X76185542Y-54936783D01*
X76352869Y-55167184D01*
X76387673Y-55223807D01*
X76356492Y-55236538D01*
X75995933Y-55115802D01*
X75618975Y-55128043D01*
X75304752Y-55217826D01*
X75051128Y-55371630D01*
X74855970Y-55575935D01*
X74717143Y-55817221D01*
X74632510Y-56081968D01*
X74599939Y-56356657D01*
X74617293Y-56627766D01*
X74682439Y-56881777D01*
X74793241Y-57105168D01*
X74947564Y-57284421D01*
X75143273Y-57406015D01*
X75378235Y-57456429D01*
X75650313Y-57422145D01*
X75957373Y-57289642D01*
X76297281Y-57045399D01*
X76496985Y-56906214D01*
X76639049Y-56706681D01*
X76731565Y-56469453D01*
X76782619Y-56217185D01*
X76792705Y-55758135D01*
X76734020Y-55510757D01*
X77732426Y-56060282D01*
X78792935Y-56561734D01*
X79898995Y-56983676D01*
X81034058Y-57294671D01*
X82181574Y-57463283D01*
X82754829Y-57484371D01*
X83324992Y-57458075D01*
X83889992Y-57380464D01*
X84447762Y-57247610D01*
X84996233Y-57055583D01*
X85533335Y-56800453D01*
X85671441Y-56674016D01*
X85761025Y-56537276D01*
X85812500Y-56248869D01*
X85723509Y-55967199D01*
X85529799Y-55724233D01*
X85267119Y-55551937D01*
X84971216Y-55482278D01*
X84677839Y-55547222D01*
X84543268Y-55640160D01*
X84422735Y-55778736D01*
X83613729Y-55986906D01*
X82784024Y-56066181D01*
X81946548Y-56030531D01*
X81114233Y-55893926D01*
X80300008Y-55670335D01*
X79516803Y-55373728D01*
X78777550Y-55018075D01*
X78095177Y-54617345D01*
X78537701Y-54204211D01*
X79049907Y-53861736D01*
X79608415Y-53608361D01*
X80189843Y-53462524D01*
X80770810Y-53442668D01*
X81327935Y-53567232D01*
X81590249Y-53689434D01*
X81837835Y-53854656D01*
X82067769Y-54065203D01*
X82277129Y-54323381D01*
X83095419Y-54765359D01*
X83965455Y-55181195D01*
X84410908Y-55310682D01*
X84858533Y-55351280D01*
X85304742Y-55275538D01*
X85745947Y-55056004D01*
X85838961Y-54934359D01*
X85883506Y-54793065D01*
X85877885Y-54489404D01*
X85830472Y-54220775D01*
X85842656Y-54062931D01*
X85052744Y-53182660D01*
X84345945Y-52763672D01*
X83589535Y-52456621D01*
X82806784Y-52240402D01*
X82020962Y-52093911D01*
X81723029Y-51599270D01*
X81507230Y-51074753D01*
X81356777Y-50526829D01*
X81254878Y-49961970D01*
X81129585Y-48807326D01*
X80997031Y-47662584D01*
X81282579Y-47672181D01*
X81399368Y-47676019D01*
X81894385Y-47824564D01*
X82371517Y-48024785D01*
X82825822Y-48273877D01*
X83252355Y-48569037D01*
X83646173Y-48907461D01*
X84002332Y-49286344D01*
X84315889Y-49702883D01*
X84581898Y-50154273D01*
X84825246Y-50459529D01*
X84942590Y-50810362D01*
X84970576Y-51194454D01*
X84945849Y-51599486D01*
X84884844Y-52423100D01*
X84921858Y-52817046D01*
X85052744Y-53182660D01*
X85842656Y-54062931D01*
X85956627Y-54062562D01*
X86219599Y-54215007D01*
X86500340Y-54161763D01*
X86734794Y-54066918D01*
X86926079Y-53935064D01*
X87077315Y-53770790D01*
X87272116Y-53363354D01*
X87344154Y-52881339D01*
X87318385Y-52361478D01*
X87219765Y-51840500D01*
X87073249Y-51355136D01*
X86903794Y-50942118D01*
X87158573Y-49639513D01*
X87530488Y-48323170D01*
X87764967Y-47685605D01*
X88034247Y-47075513D01*
X88340167Y-46503199D01*
X88684564Y-45978965D01*
X89122753Y-46877519D01*
X89474818Y-47856778D01*
X89692057Y-48884298D01*
X89734898Y-49406017D01*
X89725770Y-49927635D01*
X89603297Y-50393496D01*
X89398788Y-50823129D01*
X88845626Y-51622072D01*
X88270218Y-52421179D01*
X88037899Y-52851018D01*
X87876492Y-53317166D01*
X87716222Y-53683939D01*
X87695016Y-54055349D01*
X87791131Y-54408509D01*
X87982819Y-54720535D01*
X88248338Y-54968539D01*
X88565942Y-55129635D01*
X88913887Y-55180938D01*
X89270427Y-55099560D01*
X89963777Y-54347447D01*
X89970465Y-54276401D01*
X90047661Y-54135949D01*
X90318425Y-53700015D01*
X90666097Y-53571749D01*
X90892562Y-53335759D01*
X91029184Y-53018571D01*
X91107326Y-52646710D01*
X91213632Y-51845076D01*
X91304524Y-51468355D01*
X91462393Y-51143065D01*
X92241999Y-50244861D01*
X93075358Y-49373441D01*
X93981841Y-48596367D01*
X94468558Y-48264325D01*
X94980820Y-47981206D01*
X94987021Y-48006897D01*
X95182893Y-48581470D01*
X95266093Y-49172734D01*
X95246768Y-49770668D01*
X95135064Y-50365251D01*
X94941126Y-50946465D01*
X94675101Y-51504288D01*
X94347134Y-52028702D01*
X93967372Y-52509685D01*
X93830616Y-52743573D01*
X93670515Y-52938106D01*
X93290529Y-53227704D01*
X92847910Y-53415677D01*
X92363158Y-53539222D01*
X91349245Y-53741816D01*
X90861079Y-53895260D01*
X90412771Y-54133063D01*
X90090435Y-54318707D01*
X89963777Y-54347447D01*
X89270427Y-55099560D01*
X89165812Y-55306027D01*
X89160028Y-55506609D01*
X89228411Y-55698249D01*
X89346294Y-55877893D01*
X89631901Y-56188968D01*
X89819526Y-56415390D01*
X90981360Y-56479026D01*
X91826247Y-56115166D01*
X92621071Y-55657235D01*
X94114723Y-54649237D01*
X94845211Y-54579399D01*
X95568455Y-54565521D01*
X95797012Y-54551790D01*
X96223030Y-54563623D01*
X96644708Y-54618932D01*
X97469968Y-54833729D01*
X98262652Y-55143682D01*
X99012615Y-55496288D01*
X98431321Y-56089232D01*
X97765278Y-56590805D01*
X97031485Y-56999655D01*
X96246941Y-57314429D01*
X95428644Y-57533775D01*
X94593593Y-57656341D01*
X93758787Y-57680773D01*
X92941225Y-57605720D01*
X91898454Y-56946466D01*
X90981360Y-56479026D01*
X89819526Y-56415390D01*
X89599185Y-56544096D01*
X89465010Y-56723967D01*
X89402356Y-56938288D01*
X89396576Y-57170343D01*
X89497058Y-57620799D01*
X89649289Y-57941617D01*
X90666134Y-58637477D01*
X91584682Y-58888337D01*
X92504687Y-59117318D01*
X92940999Y-59275014D01*
X93348590Y-59488932D01*
X93717767Y-59779635D01*
X94038833Y-60167689D01*
X94517589Y-60662508D01*
X95095839Y-61264521D01*
X95305940Y-61575233D01*
X95401311Y-61876151D01*
X95391431Y-62019125D01*
X95335419Y-62155078D01*
X95227458Y-62282483D01*
X95061731Y-62399816D01*
X94450635Y-62479862D01*
X93821364Y-62452624D01*
X93194361Y-62325999D01*
X92590071Y-62107885D01*
X92028937Y-61806179D01*
X91531402Y-61428779D01*
X91117912Y-60983582D01*
X90808908Y-60478486D01*
X90938344Y-60019090D01*
X90934113Y-59540724D01*
X90831586Y-59070987D01*
X90666134Y-58637477D01*
X89649289Y-57941617D01*
X89473843Y-57964914D01*
X89305297Y-58037670D01*
X89001547Y-58274698D01*
X88615908Y-58716763D01*
X88494542Y-59227622D01*
X88492032Y-59249177D01*
X88459649Y-59564175D01*
X88537739Y-59868370D01*
X88834171Y-60444349D01*
X88956928Y-60716136D01*
X88998992Y-60977121D01*
X88912568Y-61227304D01*
X88649867Y-61466687D01*
X87872832Y-62289712D01*
X86998106Y-63113848D01*
X85473538Y-64448269D01*
X86938103Y-61790237D01*
X87694831Y-60480059D01*
X88497052Y-59206212D01*
X88494542Y-59227622D01*
X88615908Y-58716763D01*
X88618092Y-58337275D01*
X88496867Y-58027456D01*
X88281707Y-57795604D01*
X88002087Y-57650013D01*
X87687481Y-57598982D01*
X87367364Y-57650805D01*
X87071210Y-57813780D01*
X86828494Y-58096203D01*
X86250988Y-58760045D01*
X85736100Y-59468712D01*
X84820484Y-60965711D01*
X83934255Y-62477591D01*
X83456102Y-63204858D01*
X82930024Y-63894741D01*
X82570396Y-64201674D01*
X82108088Y-64496446D01*
X81654558Y-64691388D01*
X81465915Y-64724025D01*
X81321263Y-64698827D01*
X81678028Y-63991890D01*
X82101479Y-63302799D01*
X82996670Y-61934842D01*
X83392522Y-61234317D01*
X83703287Y-60508323D01*
X83891022Y-59746030D01*
X83926895Y-59347887D01*
X83917783Y-58936609D01*
X83779895Y-58547275D01*
X83549102Y-58211440D01*
X83248077Y-57944552D01*
X82899495Y-57762057D01*
X82526030Y-57679402D01*
X82150357Y-57712033D01*
X81795150Y-57875396D01*
X81483084Y-58184939D01*
X80995049Y-58680584D01*
X80524601Y-59227230D01*
X79635034Y-60391627D01*
X78811515Y-61514335D01*
X78051179Y-62431560D01*
X78027319Y-61951934D01*
X78063134Y-61487118D01*
X78262953Y-60588554D01*
X78548974Y-59709149D01*
X78819533Y-58822182D01*
X78801846Y-58421762D01*
X78649286Y-58128648D01*
X78397546Y-57940123D01*
X78082320Y-57853469D01*
X77739301Y-57865969D01*
X77404182Y-57974907D01*
X77112657Y-58177565D01*
X76900418Y-58471226D01*
X76598442Y-58953772D01*
X76343628Y-59463622D01*
X75885896Y-60510093D01*
X75638186Y-61019138D01*
X75348049Y-61500341D01*
X74993090Y-61939915D01*
X74550912Y-62324073D01*
X73311899Y-63624470D01*
X72626062Y-64205884D01*
X72249191Y-64451314D01*
X71843067Y-64655861D01*
X72589475Y-63227238D01*
X73425417Y-61853170D01*
X75154936Y-59138590D01*
X75238029Y-58911142D01*
X75266804Y-58706186D01*
X75247148Y-58524266D01*
X75184948Y-58365928D01*
X74956459Y-58122174D01*
X74628427Y-57979285D01*
X74247944Y-57941620D01*
X73862100Y-58013537D01*
X73517986Y-58199398D01*
X73262693Y-58503561D01*
X72661758Y-59164119D01*
X72104755Y-59857477D01*
X71586787Y-60578766D01*
X71102955Y-61323118D01*
X70218107Y-62861540D01*
X69411027Y-64433800D01*
X69055310Y-64779114D01*
X68666946Y-64975579D01*
X68531319Y-64972703D01*
X68472487Y-64878269D01*
X68518768Y-64674159D01*
X68698482Y-64342259D01*
X69337892Y-62981080D01*
X70051843Y-61645249D01*
X70709231Y-60288793D01*
X70975744Y-59588464D01*
X71178951Y-58865739D01*
X71110259Y-58540644D01*
X70944756Y-58309072D01*
X70707487Y-58163439D01*
X70423497Y-58096164D01*
X70117834Y-58099662D01*
X69815543Y-58166352D01*
X69541669Y-58288649D01*
X69321258Y-58458971D01*
X69313432Y-58455870D01*
X68443940Y-59793995D01*
X68302508Y-60101543D01*
X68055807Y-60451133D01*
X67811084Y-60792252D01*
X67675584Y-61074389D01*
X67367030Y-61624854D01*
X67088890Y-62212790D01*
X66526413Y-63398303D01*
X66193356Y-63944492D01*
X65793274Y-64425378D01*
X65301806Y-64815267D01*
X65014190Y-64968059D01*
X64694593Y-65088466D01*
X64830436Y-64279330D01*
X65047470Y-63470076D01*
X65343918Y-62676385D01*
X65718005Y-61913934D01*
X66167955Y-61198405D01*
X66691993Y-60545476D01*
X67288342Y-59970827D01*
X67955228Y-59490137D01*
X68234133Y-59522029D01*
X68350731Y-59561418D01*
X68420090Y-59621946D01*
X68443940Y-59793995D01*
X69313432Y-58455870D01*
X68905284Y-58294791D01*
X68460464Y-58180616D01*
X67994102Y-58120912D01*
X67521327Y-58123246D01*
X67057268Y-58195183D01*
X66617055Y-58344289D01*
X66215816Y-58578131D01*
X65868681Y-58904274D01*
X65562217Y-59157030D01*
X65229535Y-59511481D01*
X64953577Y-59789446D01*
X64862790Y-59844066D01*
X64817288Y-59812746D01*
X65089079Y-58880814D01*
X65291196Y-57911410D01*
X65407770Y-56922228D01*
X65422934Y-55930958D01*
X65320821Y-54955293D01*
X65085562Y-54012925D01*
X64701290Y-53121545D01*
X64448316Y-52700505D01*
X64152138Y-52298846D01*
X64375917Y-51909681D01*
X64633097Y-51590780D01*
X64927964Y-51324823D01*
X65264805Y-51094489D01*
X65280403Y-50859575D01*
X65252131Y-50658777D01*
X65184834Y-50490669D01*
X65083359Y-50353826D01*
X64797257Y-50168228D01*
X64432590Y-50090579D01*
X64028123Y-50109469D01*
X63622622Y-50213495D01*
X63254852Y-50391247D01*
X62963580Y-50631321D01*
X62623063Y-50854282D01*
X62254411Y-50963750D01*
X61864025Y-50984609D01*
X61458306Y-50941743D01*
X60626478Y-50764377D01*
X59810137Y-50630730D01*
X59032874Y-50583821D01*
X58251952Y-50594850D01*
X57472081Y-50662843D01*
X56697975Y-50786825D01*
X55934345Y-50965822D01*
X55185903Y-51198860D01*
X54457362Y-51484964D01*
X53753432Y-51823159D01*
X53078827Y-52212472D01*
X52438258Y-52651927D01*
X51836437Y-53140551D01*
X51278077Y-53677368D01*
X50767889Y-54261404D01*
X50310585Y-54891685D01*
X49910878Y-55567237D01*
X49573479Y-56287085D01*
X49393204Y-56855292D01*
X49251383Y-57469606D01*
X49170992Y-58102967D01*
X49175013Y-58728316D01*
X49286425Y-59318595D01*
X49528206Y-59846744D01*
X49705166Y-60079064D01*
X49923337Y-60285704D01*
X50185589Y-60463282D01*
X50494795Y-60608415D01*
X50973476Y-60647480D01*
X51448202Y-60637759D01*
X51916996Y-60581905D01*
X52377878Y-60482571D01*
X53267994Y-60164082D01*
X54102723Y-59703520D01*
X54866236Y-59122114D01*
X55542706Y-58441093D01*
X56116306Y-57681686D01*
X56571206Y-56865122D01*
X56565996Y-56514225D01*
X56439401Y-56265194D01*
X56224816Y-56114594D01*
X55955641Y-56058987D01*
X55665272Y-56094938D01*
X55387107Y-56219009D01*
X55154544Y-56427766D01*
X55000980Y-56717770D01*
X54136590Y-57668857D01*
X53657937Y-58134500D01*
X53147511Y-58556967D01*
X52604711Y-58908828D01*
X52028937Y-59162650D01*
X51419588Y-59291002D01*
X50776063Y-59266453D01*
X50543674Y-58834325D01*
X50442110Y-58371774D01*
X50449609Y-57889763D01*
X50544412Y-57399258D01*
X50704761Y-56911224D01*
X50908895Y-56436624D01*
X51361483Y-55571587D01*
X51787336Y-55029319D01*
X52260526Y-54525891D01*
X52776342Y-54062880D01*
X53330077Y-53641866D01*
X53917022Y-53264428D01*
X54532468Y-52932142D01*
X55171706Y-52646589D01*
X55830027Y-52409346D01*
X56502722Y-52221992D01*
X57185084Y-52086105D01*
X57872402Y-52003264D01*
X58559969Y-51975048D01*
X59243075Y-52003034D01*
X59917011Y-52088802D01*
X60577070Y-52233930D01*
X61218541Y-52439996D01*
X59870409Y-54758516D01*
X58470289Y-57046531D01*
X57062873Y-59327041D01*
X55692854Y-61623046D01*
X55036775Y-62615076D01*
X54382132Y-63641518D01*
X54028425Y-64127973D01*
X53642769Y-64575427D01*
X53214395Y-64968011D01*
X52732533Y-65289857D01*
X51397657Y-66667699D01*
X51106778Y-66831266D01*
X50750417Y-66936029D01*
X50359402Y-66979272D01*
X49964562Y-66958279D01*
X49596727Y-66870337D01*
X49286727Y-66712729D01*
X49065391Y-66482741D01*
X48963549Y-66177659D01*
X49108095Y-66175444D01*
X49261501Y-66179282D01*
X50381545Y-66410318D01*
X51397657Y-66667699D01*
X52732533Y-65289857D01*
X51900589Y-65244642D01*
X51072522Y-65114649D01*
X49392168Y-64806018D01*
X48967973Y-64729752D01*
X48575368Y-64778443D01*
X48228831Y-64933530D01*
X47942842Y-65176452D01*
X47731879Y-65488651D01*
X47610420Y-65851564D01*
X47592945Y-66246633D01*
X47693933Y-66655296D01*
X47823584Y-66977792D01*
X47993783Y-67263820D01*
X48200294Y-67514373D01*
X48438877Y-67730444D01*
X48995311Y-68063114D01*
X49629182Y-68269773D01*
X50306584Y-68358366D01*
X50993615Y-68336837D01*
X51656371Y-68213131D01*
X52260948Y-67995192D01*
X52678719Y-67662171D01*
X53117005Y-67352485D01*
X55033315Y-65709470D01*
X56136379Y-64486555D01*
X57141104Y-63199523D01*
X58070747Y-61863291D01*
X58948562Y-60492776D01*
X60641732Y-57708567D01*
X61503597Y-56324708D01*
X62406656Y-54966235D01*
X62734286Y-54405131D01*
X63072839Y-53868037D01*
X63156472Y-54481625D01*
X63195219Y-55094332D01*
X63148055Y-56313664D01*
X62951345Y-57519161D01*
X62625085Y-58703945D01*
X62189274Y-59861144D01*
X61663907Y-60983883D01*
X61068982Y-62065287D01*
X60424495Y-63098481D01*
X59920585Y-63689813D01*
X59343621Y-64205507D01*
X58705847Y-64645531D01*
X58019505Y-65009852D01*
X57296839Y-65298439D01*
X56550090Y-65511259D01*
X55791501Y-65648280D01*
X55033315Y-65709470D01*
X53117005Y-67352485D01*
X53476198Y-67165696D01*
X53854353Y-67058952D01*
X54254472Y-67061695D01*
X54679553Y-67203362D01*
X56116806Y-67145599D01*
X56839442Y-67052292D01*
X57555464Y-66911815D01*
X58257906Y-66721001D01*
X58939803Y-66476685D01*
X59594189Y-66175704D01*
X60214099Y-65814890D01*
X61411895Y-65005454D01*
X61973457Y-64544136D01*
X62452869Y-64013006D01*
X62399645Y-64356457D01*
X62407373Y-64691664D01*
X62470578Y-65014479D01*
X62583785Y-65320751D01*
X62741520Y-65606333D01*
X62938307Y-65867075D01*
X63168673Y-66098828D01*
X63427141Y-66297443D01*
X63708238Y-66458771D01*
X64006489Y-66578664D01*
X64316418Y-66652972D01*
X64632552Y-66677546D01*
X64949416Y-66648237D01*
X65261534Y-66560896D01*
X65563432Y-66411375D01*
X65849635Y-66195523D01*
X66154165Y-65983271D01*
X66419189Y-65919961D01*
X66539508Y-65952264D01*
X66653094Y-66031528D01*
X66864265Y-66343908D01*
X67054465Y-66525336D01*
X67252476Y-66656290D01*
X67666946Y-66786346D01*
X68097719Y-66773209D01*
X68534839Y-66656013D01*
X69388287Y-66265980D01*
X69784703Y-66071410D01*
X70147638Y-65929316D01*
X70462979Y-66170539D01*
X70807635Y-66305502D01*
X71171060Y-66352895D01*
X71542703Y-66331409D01*
X72268458Y-66156565D01*
X72900515Y-65930497D01*
X72901401Y-65931678D01*
X74789658Y-64083138D01*
X75320154Y-63559033D01*
X75586283Y-63288043D01*
X75806797Y-62992471D01*
X75613690Y-63612895D01*
X75360898Y-64277810D01*
X75202431Y-64577832D01*
X75017417Y-64830033D01*
X74801978Y-65014767D01*
X74552241Y-65112386D01*
X74489498Y-64812206D01*
X74521044Y-64545696D01*
X74627543Y-64305219D01*
X74789658Y-64083138D01*
X72901401Y-65931678D01*
X73072979Y-66179949D01*
X73267162Y-66380719D01*
X73481174Y-66537118D01*
X73712244Y-66652275D01*
X74214464Y-66771389D01*
X74751638Y-66763102D01*
X75301585Y-66652456D01*
X75842119Y-66464492D01*
X76351058Y-66224252D01*
X76806220Y-65956778D01*
X77526063Y-65347529D01*
X78173689Y-64670281D01*
X78766695Y-63941843D01*
X79322676Y-63179026D01*
X80393945Y-61617489D01*
X80944426Y-60852389D01*
X81528264Y-60120147D01*
X81218274Y-60686292D01*
X80866946Y-61241848D01*
X80136376Y-62349705D01*
X79805189Y-62916262D01*
X79528770Y-63500741D01*
X79331145Y-64110271D01*
X79236340Y-64751979D01*
X79333825Y-65172349D01*
X79537552Y-65538761D01*
X79825986Y-65844777D01*
X80177592Y-66083957D01*
X80570835Y-66249860D01*
X80984178Y-66336046D01*
X81396085Y-66336076D01*
X81785022Y-66243509D01*
X80305599Y-68828364D01*
X79532562Y-70022996D01*
X79116903Y-70637060D01*
X78667784Y-71222959D01*
X78174680Y-71751194D01*
X77627068Y-72192268D01*
X77014423Y-72516684D01*
X76680424Y-72625926D01*
X76326219Y-72694942D01*
X76174040Y-72353967D01*
X76174113Y-72012015D01*
X76296905Y-71676263D01*
X76512881Y-71353889D01*
X76792506Y-71052073D01*
X77106248Y-70777991D01*
X77717939Y-70341745D01*
X79030468Y-69532854D01*
X80305599Y-68828364D01*
X81785022Y-66243509D01*
X81506324Y-66585854D01*
X81167297Y-66859439D01*
X80783799Y-67083268D01*
X80371688Y-67276347D01*
X79525058Y-67646280D01*
X79122256Y-67861144D01*
X78754273Y-68121282D01*
X77377033Y-68921682D01*
X76681774Y-69385939D01*
X76034554Y-69903955D01*
X75474720Y-70484023D01*
X75041623Y-71134432D01*
X74884896Y-71488605D01*
X74774609Y-71863474D01*
X74715680Y-72260073D01*
X74713028Y-72679439D01*
X74814113Y-73116654D01*
X75014222Y-73485185D01*
X75295779Y-73781656D01*
X75641209Y-74002691D01*
X76032936Y-74144915D01*
X76453383Y-74204952D01*
X76884976Y-74179425D01*
X77310138Y-74064958D01*
X78147135Y-73744232D01*
X78918135Y-73300833D01*
X79629029Y-72755331D01*
X80285709Y-72128296D01*
X80894066Y-71440298D01*
X81459992Y-70711908D01*
X82488117Y-69216232D01*
X82996753Y-68383497D01*
X83573634Y-67614916D01*
X83901888Y-67271134D01*
X84264269Y-66963130D01*
X84666465Y-66697484D01*
X85114166Y-66480777D01*
X85796952Y-66009662D01*
X86454474Y-65502745D01*
X87702072Y-64401409D01*
X88873656Y-63216570D01*
X89985924Y-61988028D01*
X90608299Y-62506285D01*
X91297608Y-62976585D01*
X92038905Y-63375944D01*
X92817243Y-63681380D01*
X93617677Y-63869909D01*
X94425261Y-63918547D01*
X94827063Y-63883224D01*
X95225048Y-63804310D01*
X95617348Y-63678931D01*
X96002094Y-63504215D01*
X96266827Y-63321056D01*
X96473659Y-63112721D01*
X96626371Y-62882933D01*
X96728744Y-62635415D01*
X96784560Y-62373890D01*
X96797600Y-62102082D01*
X96710477Y-61542507D01*
X96497627Y-60986475D01*
X96189301Y-60463772D01*
X95815750Y-60004181D01*
X95407224Y-59637489D01*
X95140061Y-59371813D01*
X94949930Y-59146430D01*
X94926378Y-59055530D01*
X94973238Y-58982720D01*
X95107559Y-58930672D01*
X95346394Y-58902060D01*
X96093056Y-58739484D01*
X96859259Y-58519657D01*
X97619047Y-58234719D01*
X98346467Y-57876811D01*
X99015561Y-57438075D01*
X99600375Y-56910650D01*
X100074954Y-56286678D01*
X100262794Y-55936030D01*
X100413342Y-55558299D01*
X100395445Y-55290572D01*
X100333757Y-55054148D01*
X100232776Y-54846252D01*
X100096998Y-54664113D01*
X99739038Y-54366009D01*
X99295856Y-54137651D01*
X98297727Y-53801426D01*
X97814732Y-53649189D01*
X97390418Y-53477954D01*
X96800237Y-53376063D01*
X96147766Y-53360275D01*
X95551207Y-53343455D01*
X95310833Y-53307429D01*
X95128762Y-53238470D01*
X95595091Y-52602945D01*
X95977547Y-51910315D01*
X96268964Y-51174365D01*
X96462179Y-50408880D01*
X96550028Y-49627644D01*
X96525345Y-48844442D01*
X96380967Y-48073058D01*
X96109729Y-47327277D01*
X95929176Y-47083668D01*
X95727205Y-46898556D01*
X95506828Y-46767436D01*
X95271061Y-46685805D01*
X94765411Y-46652987D01*
X94234368Y-46764065D01*
X93702045Y-46983000D01*
X93192556Y-47273756D01*
X92730013Y-47600294D01*
X92338530Y-47926577D01*
X92169732Y-48034813D01*
X91981623Y-48207566D01*
X91601556Y-48584235D01*
X91436639Y-48706958D01*
X91306494Y-48731810D01*
X91224641Y-48618196D01*
X91204602Y-48325518D01*
X91014841Y-47369307D01*
X90725484Y-46444131D01*
X90521660Y-46014476D01*
X90266779Y-45618135D01*
X89952122Y-45263624D01*
X89568969Y-44959464D01*
X89299717Y-44766569D01*
X88990577Y-44634493D01*
X88661202Y-44554979D01*
X88331245Y-44519771D01*
X87751689Y-44740095D01*
X87269731Y-45084929D01*
X86869670Y-45528402D01*
X86535810Y-46044644D01*
X86252451Y-46607786D01*
X86003895Y-47191957D01*
X85548395Y-48319908D01*
X85473771Y-48475259D01*
X85362302Y-48480488D01*
X85222561Y-48374116D01*
X85063123Y-48194661D01*
X84719443Y-47770583D01*
X84552349Y-47603000D01*
X84399850Y-47516413D01*
X83950753Y-47141129D01*
X83457567Y-46846466D01*
X82929314Y-46626214D01*
X82375020Y-46474165D01*
X81803710Y-46384110D01*
X81224408Y-46349841D01*
X80646139Y-46365149D01*
X80077928Y-46423826D01*
X79715824Y-46707469D01*
X79455014Y-47048711D01*
X79282607Y-47437004D01*
X79185717Y-47861799D01*
X79151454Y-48312547D01*
X79166930Y-48778700D01*
X79295547Y-49715024D01*
X79224529Y-49615215D01*
X78721634Y-49552723D01*
X78396898Y-49474492D01*
X78297871Y-49394716D01*
X78239222Y-49269293D01*
X78237509Y-48825894D01*
X77965495Y-48680716D01*
X77675066Y-48640192D01*
X77373022Y-48679776D01*
X77066161Y-48774918D01*
X76465188Y-49033687D01*
X75926539Y-49220111D01*
X74490673Y-50220714D01*
X74256566Y-50616722D01*
X73890623Y-51010153D01*
X73317765Y-51491807D01*
X73870134Y-50786141D01*
X74169427Y-50457639D01*
X74490673Y-50220714D01*
X75926539Y-49220111D01*
X75842524Y-49049494D01*
X75727839Y-48908238D01*
X75428600Y-48712083D01*
X75073108Y-48628202D01*
X74705646Y-48653147D01*
X75032430Y-48386113D01*
X75396699Y-48005519D01*
X75743339Y-47551744D01*
X76017235Y-47065170D01*
X76163273Y-46586176D01*
X76171122Y-46362141D01*
X76126338Y-46155143D01*
X76022033Y-45970231D01*
X75851317Y-45812451D01*
X75607300Y-45686851D01*
X75283094Y-45598479D01*
X74679069Y-45817578D01*
X74146238Y-46156868D01*
X73667564Y-46584354D01*
X73226007Y-47068038D01*
X72386093Y-48076012D01*
X71953659Y-48536309D01*
X71490191Y-48924817D01*
X71191497Y-48889975D01*
X70901281Y-48906594D01*
X70622702Y-48969975D01*
X70358920Y-49075417D01*
X70588363Y-48810538D01*
X71256668Y-48003561D01*
X71955890Y-47184334D01*
X72269019Y-46755745D01*
X72532186Y-46306834D01*
X72726160Y-45831849D01*
X72831712Y-45325037D01*
X72555351Y-45012853D01*
X72415675Y-44939873D01*
X72276088Y-44914973D01*
X72000432Y-44987436D01*
X71734897Y-45186281D01*
X71485993Y-45467545D01*
X71260231Y-45787268D01*
X70904181Y-46366243D01*
X70035505Y-47459496D01*
X69567233Y-47955509D01*
X69321988Y-48149059D01*
X69068338Y-48290379D01*
X69597173Y-47337408D01*
X70212182Y-46435461D01*
X71569811Y-44707735D01*
X72246974Y-43843503D01*
X72879399Y-42953391D01*
X73434356Y-42018171D01*
X73879118Y-41018619D01*
X73863456Y-40790864D01*
X73810347Y-40603490D01*
X73724814Y-40454638D01*
X73611879Y-40342449D01*
X73323899Y-40220627D01*
X72986590Y-40223156D01*
X72640137Y-40335167D01*
X72324723Y-40541791D01*
X72080532Y-40828161D01*
X71947749Y-41179406D01*
X71414378Y-41948556D01*
X70827446Y-42734210D01*
X70208859Y-43440831D01*
X69894541Y-43734651D01*
X69580525Y-43972886D01*
X68745139Y-45268636D01*
X68595130Y-45462792D01*
X68330114Y-45792991D01*
X68083084Y-46171861D01*
X67616108Y-46987213D01*
X67140444Y-47732043D01*
X66882557Y-48022761D01*
X66602339Y-48229548D01*
X66747904Y-47787160D01*
X66934180Y-47360357D01*
X67417324Y-46563637D01*
X68028675Y-45859645D01*
X68745139Y-45268636D01*
X69580525Y-43972886D01*
X69125216Y-43779643D01*
X68668715Y-43736952D01*
X68216724Y-43815031D01*
X67774942Y-43984094D01*
X67349070Y-44214359D01*
X66944809Y-44476042D01*
X66223920Y-44974523D01*
X66099985Y-44818209D01*
X66001790Y-44596237D01*
X65810768Y-44086232D01*
X65682013Y-43863653D01*
X65507146Y-43706327D01*
X65268201Y-43646981D01*
X64947217Y-43718343D01*
X64785031Y-43900438D01*
X64639831Y-44000392D01*
X64503343Y-44036621D01*
X64367297Y-44027541D01*
X64063444Y-43947117D01*
X63662098Y-43906445D01*
X63461150Y-43951553D01*
X63269623Y-44073497D01*
X62930929Y-44385581D01*
X62791812Y-44494567D01*
X62678213Y-44518079D01*
X62594159Y-44415540D01*
X62543672Y-44146372D01*
X62341616Y-43945152D01*
X62118270Y-43862855D01*
X61881964Y-43868837D01*
X61641030Y-43932452D01*
X61178593Y-44110005D01*
X60973751Y-44162653D01*
X60797599Y-44150358D01*
X60082250Y-45352352D01*
X59697922Y-46198464D01*
X59200350Y-47031973D01*
X58598395Y-47791441D01*
X58261041Y-48124212D01*
X57900914Y-48415435D01*
X58027099Y-47967061D01*
X58216975Y-47535363D01*
X58459624Y-47121358D01*
X58744124Y-46726064D01*
X59395001Y-45995681D01*
X60082250Y-45352352D01*
X60797599Y-44150358D01*
X60429161Y-43992708D01*
X60004715Y-43936651D01*
X59603940Y-43954117D01*
X59306513Y-44017033D01*
X58058748Y-44827762D01*
X57061770Y-45879773D01*
X56044562Y-46973568D01*
X55501955Y-47468474D01*
X54922591Y-47892634D01*
X54295904Y-48218983D01*
X53611327Y-48420455D01*
X53501946Y-48012264D01*
X53489828Y-47585961D01*
X53559863Y-47153301D01*
X53696945Y-46726036D01*
X53885963Y-46315920D01*
X54111810Y-45934705D01*
X54613555Y-45305991D01*
X55391507Y-44010536D01*
X55362259Y-43932633D01*
X55395526Y-43825623D01*
X55689901Y-43513557D01*
X56396292Y-42777412D01*
X57151372Y-42085851D01*
X57558649Y-41786373D01*
X57991872Y-41533539D01*
X58455633Y-41339182D01*
X58954523Y-41215136D01*
X59076700Y-41449855D01*
X59140522Y-41679006D01*
X59151133Y-41901790D01*
X59113679Y-42117405D01*
X58915149Y-42523935D01*
X58586089Y-42892198D01*
X58167654Y-43215796D01*
X57701000Y-43488331D01*
X57227282Y-43703405D01*
X56787656Y-43854621D01*
X56423558Y-43987107D01*
X56001273Y-44075258D01*
X55623143Y-44092069D01*
X55482617Y-44065284D01*
X55391507Y-44010536D01*
X54613555Y-45305991D01*
X55054238Y-45380116D01*
X55514483Y-45400220D01*
X56448800Y-45309892D01*
X57326793Y-45098057D01*
X58058748Y-44827762D01*
X59306513Y-44017033D01*
X59559575Y-43831794D01*
X59787993Y-43610212D01*
X60162608Y-43081119D01*
X60413783Y-42475953D01*
X60524946Y-41840916D01*
X60479523Y-41222205D01*
X60392913Y-40933410D01*
X60260941Y-40666021D01*
X60081536Y-40425814D01*
X59852626Y-40218563D01*
X59572139Y-40050044D01*
X59238005Y-39926031D01*
X58770749Y-39899422D01*
X58315567Y-39926032D01*
X57872526Y-40001741D01*
X57441693Y-40122429D01*
X56616923Y-40482262D01*
X55841797Y-40972573D01*
X55116857Y-41560403D01*
X54442643Y-42212791D01*
X53819697Y-42896779D01*
X53248559Y-43579408D01*
X52861601Y-43414658D01*
X52522145Y-43114182D01*
X52254088Y-42724936D01*
X52081325Y-42293879D01*
X52027751Y-41867966D01*
X52053127Y-41671613D01*
X52117262Y-41494156D01*
X52223141Y-41341463D01*
X52373753Y-41219405D01*
X52572084Y-41133851D01*
X52821120Y-41090670D01*
X53399535Y-41322554D01*
X53720702Y-41395729D01*
X54022933Y-41414610D01*
X54276048Y-41359861D01*
X54449866Y-41212146D01*
X54514206Y-40952127D01*
X54438888Y-40560470D01*
X54265393Y-40370901D01*
X54060841Y-40211840D01*
X53584691Y-39977740D01*
X53062690Y-39843175D01*
X52547088Y-39793149D01*
X52547088Y-39793149D01*
X52547088Y-39793149D01*
G37*
X52547088Y-39793149D02*
X52018137Y-39866299D01*
X51543757Y-40063474D01*
X51138495Y-40364279D01*
X50816897Y-40748318D01*
X50593510Y-41195193D01*
X50482883Y-41684510D01*
X50499561Y-42195871D01*
X50658093Y-42708881D01*
X50756878Y-43062870D01*
X50946467Y-43374991D01*
X51199431Y-43653166D01*
X51488346Y-43905317D01*
X52064314Y-44363232D01*
X52296514Y-44584841D01*
X52454956Y-44812112D01*
X52117601Y-45394567D01*
X51868852Y-46038619D01*
X51722875Y-46715842D01*
X51693834Y-47397809D01*
X51795894Y-48056094D01*
X52043221Y-48662269D01*
X52225786Y-48936932D01*
X52449980Y-49187908D01*
X52717573Y-49411643D01*
X53030336Y-49604584D01*
X53462463Y-49753130D01*
X53893046Y-49779932D01*
X54317526Y-49708179D01*
X54731344Y-49561058D01*
X55508753Y-49133469D01*
X56188800Y-48682676D01*
X56374761Y-49089220D01*
X56655806Y-49416830D01*
X57007883Y-49658503D01*
X57406937Y-49807238D01*
X57828917Y-49856034D01*
X58249769Y-49797888D01*
X58645440Y-49625799D01*
X58991877Y-49332766D01*
X59226437Y-49622830D01*
X59505207Y-49774497D01*
X59811157Y-49811232D01*
X60127257Y-49756502D01*
X60436476Y-49633772D01*
X60721784Y-49466509D01*
X61152542Y-49092249D01*
X61396559Y-49449347D01*
X61535564Y-49551946D01*
X61682868Y-49609548D01*
X61993280Y-49606678D01*
X62309605Y-49474561D01*
X62613653Y-49247019D01*
X62887235Y-48957879D01*
X63112161Y-48640963D01*
X63270242Y-48330096D01*
X63682400Y-47744213D01*
X64077519Y-47121710D01*
X64490052Y-46526248D01*
X64954451Y-46021488D01*
X65231838Y-46134964D01*
X65298008Y-46217881D01*
X65324227Y-46315908D01*
X65282020Y-46550267D01*
X65155618Y-46823987D01*
X64851838Y-47433296D01*
X64775265Y-47740777D01*
X64816106Y-48031405D01*
X64818530Y-48318870D01*
X64869534Y-48586091D01*
X64963836Y-48831052D01*
X65096154Y-49051742D01*
X65453713Y-49412253D01*
X65899961Y-49651515D01*
X66392647Y-49753423D01*
X66889520Y-49701867D01*
X67126322Y-49613508D01*
X67348327Y-49480743D01*
X67550253Y-49301558D01*
X67726818Y-49073941D01*
X67935756Y-49326938D01*
X68168590Y-49514890D01*
X68420042Y-49641915D01*
X68684836Y-49712131D01*
X68957693Y-49729657D01*
X69233338Y-49698613D01*
X69771876Y-49507284D01*
X69528556Y-49808830D01*
X69341439Y-50146438D01*
X69218608Y-50508819D01*
X69168148Y-50884683D01*
X68853897Y-51142988D01*
X68484349Y-51344040D01*
X67685982Y-51673821D01*
X67310473Y-51852270D01*
X66986286Y-52072903D01*
X66740077Y-52360581D01*
X66598500Y-52740162D01*
X66805527Y-53012137D01*
X67058140Y-53140081D01*
X67339825Y-53156499D01*
X67634062Y-53093897D01*
X68194129Y-52861654D01*
X68606203Y-52703398D01*
X68422691Y-53066495D01*
X68184022Y-53412586D01*
X67641362Y-54085074D01*
X67387447Y-54427134D01*
X67178526Y-54783513D01*
X67039637Y-55162043D01*
X66995818Y-55570554D01*
X67190947Y-55878532D01*
X67429124Y-56050984D01*
X67693602Y-56104648D01*
X67967638Y-56056265D01*
X68234483Y-55922576D01*
X68477394Y-55720321D01*
X68679623Y-55466240D01*
X68824426Y-55177075D01*
X70326843Y-53159282D01*
X71650388Y-51508639D01*
X71589379Y-51745572D01*
X71575130Y-51970933D01*
X71669068Y-52378466D01*
X71896521Y-52714279D01*
X72221804Y-52961416D01*
X72609235Y-53102921D01*
X73023129Y-53121836D01*
X73427805Y-53001204D01*
X73615534Y-52883259D01*
X73787578Y-52724069D01*
X73972672Y-52590486D01*
X74146817Y-52614746D01*
X74318143Y-52742957D01*
X74494779Y-52921232D01*
X74684854Y-53095678D01*
X74896498Y-53212409D01*
X75137840Y-53217532D01*
X75417009Y-53057160D01*
X75701736Y-52770217D01*
X75965302Y-52441818D01*
X76458441Y-51732663D01*
X76955417Y-51073723D01*
X77223778Y-50808092D01*
X77515220Y-50609026D01*
X77739099Y-50747552D01*
X78005091Y-50829321D01*
X78293954Y-50857251D01*
X78586442Y-50834260D01*
X78863310Y-50763266D01*
X79105316Y-50647186D01*
X79293213Y-50488937D01*
X79407759Y-50291438D01*
X79488079Y-50689346D01*
X79539216Y-50958882D01*
X79654032Y-51235009D01*
X79911154Y-51751401D01*
X79971682Y-51963850D01*
X79932338Y-52127255D01*
X79752235Y-52227709D01*
X79390484Y-52251303D01*
X78886426Y-52378665D01*
X78405491Y-52568820D01*
X77948564Y-52813659D01*
X77516529Y-53105077D01*
X76730672Y-53795216D01*
X76054992Y-54574380D01*
X76103140Y-54770267D01*
X76185542Y-54936783D01*
X76352869Y-55167184D01*
X76387673Y-55223807D01*
X76356492Y-55236538D01*
X75995933Y-55115802D01*
X75618975Y-55128043D01*
X75304752Y-55217826D01*
X75051128Y-55371630D01*
X74855970Y-55575935D01*
X74717143Y-55817221D01*
X74632510Y-56081968D01*
X74599939Y-56356657D01*
X74617293Y-56627766D01*
X74682439Y-56881777D01*
X74793241Y-57105168D01*
X74947564Y-57284421D01*
X75143273Y-57406015D01*
X75378235Y-57456429D01*
X75650313Y-57422145D01*
X75957373Y-57289642D01*
X76297281Y-57045399D01*
X76496985Y-56906214D01*
X76639049Y-56706681D01*
X76731565Y-56469453D01*
X76782619Y-56217185D01*
X76792705Y-55758135D01*
X76734020Y-55510757D01*
X77732426Y-56060282D01*
X78792935Y-56561734D01*
X79898995Y-56983676D01*
X81034058Y-57294671D01*
X82181574Y-57463283D01*
X82754829Y-57484371D01*
X83324992Y-57458075D01*
X83889992Y-57380464D01*
X84447762Y-57247610D01*
X84996233Y-57055583D01*
X85533335Y-56800453D01*
X85671441Y-56674016D01*
X85761025Y-56537276D01*
X85812500Y-56248869D01*
X85723509Y-55967199D01*
X85529799Y-55724233D01*
X85267119Y-55551937D01*
X84971216Y-55482278D01*
X84677839Y-55547222D01*
X84543268Y-55640160D01*
X84422735Y-55778736D01*
X83613729Y-55986906D01*
X82784024Y-56066181D01*
X81946548Y-56030531D01*
X81114233Y-55893926D01*
X80300008Y-55670335D01*
X79516803Y-55373728D01*
X78777550Y-55018075D01*
X78095177Y-54617345D01*
X78537701Y-54204211D01*
X79049907Y-53861736D01*
X79608415Y-53608361D01*
X80189843Y-53462524D01*
X80770810Y-53442668D01*
X81327935Y-53567232D01*
X81590249Y-53689434D01*
X81837835Y-53854656D01*
X82067769Y-54065203D01*
X82277129Y-54323381D01*
X83095419Y-54765359D01*
X83965455Y-55181195D01*
X84410908Y-55310682D01*
X84858533Y-55351280D01*
X85304742Y-55275538D01*
X85745947Y-55056004D01*
X85838961Y-54934359D01*
X85883506Y-54793065D01*
X85877885Y-54489404D01*
X85830472Y-54220775D01*
X85842656Y-54062931D01*
X85052744Y-53182660D01*
X84345945Y-52763672D01*
X83589535Y-52456621D01*
X82806784Y-52240402D01*
X82020962Y-52093911D01*
X81723029Y-51599270D01*
X81507230Y-51074753D01*
X81356777Y-50526829D01*
X81254878Y-49961970D01*
X81129585Y-48807326D01*
X80997031Y-47662584D01*
X81282579Y-47672181D01*
X81399368Y-47676019D01*
X81894385Y-47824564D01*
X82371517Y-48024785D01*
X82825822Y-48273877D01*
X83252355Y-48569037D01*
X83646173Y-48907461D01*
X84002332Y-49286344D01*
X84315889Y-49702883D01*
X84581898Y-50154273D01*
X84825246Y-50459529D01*
X84942590Y-50810362D01*
X84970576Y-51194454D01*
X84945849Y-51599486D01*
X84884844Y-52423100D01*
X84921858Y-52817046D01*
X85052744Y-53182660D01*
X85842656Y-54062931D01*
X85956627Y-54062562D01*
X86219599Y-54215007D01*
X86500340Y-54161763D01*
X86734794Y-54066918D01*
X86926079Y-53935064D01*
X87077315Y-53770790D01*
X87272116Y-53363354D01*
X87344154Y-52881339D01*
X87318385Y-52361478D01*
X87219765Y-51840500D01*
X87073249Y-51355136D01*
X86903794Y-50942118D01*
X87158573Y-49639513D01*
X87530488Y-48323170D01*
X87764967Y-47685605D01*
X88034247Y-47075513D01*
X88340167Y-46503199D01*
X88684564Y-45978965D01*
X89122753Y-46877519D01*
X89474818Y-47856778D01*
X89692057Y-48884298D01*
X89734898Y-49406017D01*
X89725770Y-49927635D01*
X89603297Y-50393496D01*
X89398788Y-50823129D01*
X88845626Y-51622072D01*
X88270218Y-52421179D01*
X88037899Y-52851018D01*
X87876492Y-53317166D01*
X87716222Y-53683939D01*
X87695016Y-54055349D01*
X87791131Y-54408509D01*
X87982819Y-54720535D01*
X88248338Y-54968539D01*
X88565942Y-55129635D01*
X88913887Y-55180938D01*
X89270427Y-55099560D01*
X89963777Y-54347447D01*
X89970465Y-54276401D01*
X90047661Y-54135949D01*
X90318425Y-53700015D01*
X90666097Y-53571749D01*
X90892562Y-53335759D01*
X91029184Y-53018571D01*
X91107326Y-52646710D01*
X91213632Y-51845076D01*
X91304524Y-51468355D01*
X91462393Y-51143065D01*
X92241999Y-50244861D01*
X93075358Y-49373441D01*
X93981841Y-48596367D01*
X94468558Y-48264325D01*
X94980820Y-47981206D01*
X94987021Y-48006897D01*
X95182893Y-48581470D01*
X95266093Y-49172734D01*
X95246768Y-49770668D01*
X95135064Y-50365251D01*
X94941126Y-50946465D01*
X94675101Y-51504288D01*
X94347134Y-52028702D01*
X93967372Y-52509685D01*
X93830616Y-52743573D01*
X93670515Y-52938106D01*
X93290529Y-53227704D01*
X92847910Y-53415677D01*
X92363158Y-53539222D01*
X91349245Y-53741816D01*
X90861079Y-53895260D01*
X90412771Y-54133063D01*
X90090435Y-54318707D01*
X89963777Y-54347447D01*
X89270427Y-55099560D01*
X89165812Y-55306027D01*
X89160028Y-55506609D01*
X89228411Y-55698249D01*
X89346294Y-55877893D01*
X89631901Y-56188968D01*
X89819526Y-56415390D01*
X90981360Y-56479026D01*
X91826247Y-56115166D01*
X92621071Y-55657235D01*
X94114723Y-54649237D01*
X94845211Y-54579399D01*
X95568455Y-54565521D01*
X95797012Y-54551790D01*
X96223030Y-54563623D01*
X96644708Y-54618932D01*
X97469968Y-54833729D01*
X98262652Y-55143682D01*
X99012615Y-55496288D01*
X98431321Y-56089232D01*
X97765278Y-56590805D01*
X97031485Y-56999655D01*
X96246941Y-57314429D01*
X95428644Y-57533775D01*
X94593593Y-57656341D01*
X93758787Y-57680773D01*
X92941225Y-57605720D01*
X91898454Y-56946466D01*
X90981360Y-56479026D01*
X89819526Y-56415390D01*
X89599185Y-56544096D01*
X89465010Y-56723967D01*
X89402356Y-56938288D01*
X89396576Y-57170343D01*
X89497058Y-57620799D01*
X89649289Y-57941617D01*
X90666134Y-58637477D01*
X91584682Y-58888337D01*
X92504687Y-59117318D01*
X92940999Y-59275014D01*
X93348590Y-59488932D01*
X93717767Y-59779635D01*
X94038833Y-60167689D01*
X94517589Y-60662508D01*
X95095839Y-61264521D01*
X95305940Y-61575233D01*
X95401311Y-61876151D01*
X95391431Y-62019125D01*
X95335419Y-62155078D01*
X95227458Y-62282483D01*
X95061731Y-62399816D01*
X94450635Y-62479862D01*
X93821364Y-62452624D01*
X93194361Y-62325999D01*
X92590071Y-62107885D01*
X92028937Y-61806179D01*
X91531402Y-61428779D01*
X91117912Y-60983582D01*
X90808908Y-60478486D01*
X90938344Y-60019090D01*
X90934113Y-59540724D01*
X90831586Y-59070987D01*
X90666134Y-58637477D01*
X89649289Y-57941617D01*
X89473843Y-57964914D01*
X89305297Y-58037670D01*
X89001547Y-58274698D01*
X88615908Y-58716763D01*
X88494542Y-59227622D01*
X88492032Y-59249177D01*
X88459649Y-59564175D01*
X88537739Y-59868370D01*
X88834171Y-60444349D01*
X88956928Y-60716136D01*
X88998992Y-60977121D01*
X88912568Y-61227304D01*
X88649867Y-61466687D01*
X87872832Y-62289712D01*
X86998106Y-63113848D01*
X85473538Y-64448269D01*
X86938103Y-61790237D01*
X87694831Y-60480059D01*
X88497052Y-59206212D01*
X88494542Y-59227622D01*
X88615908Y-58716763D01*
X88618092Y-58337275D01*
X88496867Y-58027456D01*
X88281707Y-57795604D01*
X88002087Y-57650013D01*
X87687481Y-57598982D01*
X87367364Y-57650805D01*
X87071210Y-57813780D01*
X86828494Y-58096203D01*
X86250988Y-58760045D01*
X85736100Y-59468712D01*
X84820484Y-60965711D01*
X83934255Y-62477591D01*
X83456102Y-63204858D01*
X82930024Y-63894741D01*
X82570396Y-64201674D01*
X82108088Y-64496446D01*
X81654558Y-64691388D01*
X81465915Y-64724025D01*
X81321263Y-64698827D01*
X81678028Y-63991890D01*
X82101479Y-63302799D01*
X82996670Y-61934842D01*
X83392522Y-61234317D01*
X83703287Y-60508323D01*
X83891022Y-59746030D01*
X83926895Y-59347887D01*
X83917783Y-58936609D01*
X83779895Y-58547275D01*
X83549102Y-58211440D01*
X83248077Y-57944552D01*
X82899495Y-57762057D01*
X82526030Y-57679402D01*
X82150357Y-57712033D01*
X81795150Y-57875396D01*
X81483084Y-58184939D01*
X80995049Y-58680584D01*
X80524601Y-59227230D01*
X79635034Y-60391627D01*
X78811515Y-61514335D01*
X78051179Y-62431560D01*
X78027319Y-61951934D01*
X78063134Y-61487118D01*
X78262953Y-60588554D01*
X78548974Y-59709149D01*
X78819533Y-58822182D01*
X78801846Y-58421762D01*
X78649286Y-58128648D01*
X78397546Y-57940123D01*
X78082320Y-57853469D01*
X77739301Y-57865969D01*
X77404182Y-57974907D01*
X77112657Y-58177565D01*
X76900418Y-58471226D01*
X76598442Y-58953772D01*
X76343628Y-59463622D01*
X75885896Y-60510093D01*
X75638186Y-61019138D01*
X75348049Y-61500341D01*
X74993090Y-61939915D01*
X74550912Y-62324073D01*
X73311899Y-63624470D01*
X72626062Y-64205884D01*
X72249191Y-64451314D01*
X71843067Y-64655861D01*
X72589475Y-63227238D01*
X73425417Y-61853170D01*
X75154936Y-59138590D01*
X75238029Y-58911142D01*
X75266804Y-58706186D01*
X75247148Y-58524266D01*
X75184948Y-58365928D01*
X74956459Y-58122174D01*
X74628427Y-57979285D01*
X74247944Y-57941620D01*
X73862100Y-58013537D01*
X73517986Y-58199398D01*
X73262693Y-58503561D01*
X72661758Y-59164119D01*
X72104755Y-59857477D01*
X71586787Y-60578766D01*
X71102955Y-61323118D01*
X70218107Y-62861540D01*
X69411027Y-64433800D01*
X69055310Y-64779114D01*
X68666946Y-64975579D01*
X68531319Y-64972703D01*
X68472487Y-64878269D01*
X68518768Y-64674159D01*
X68698482Y-64342259D01*
X69337892Y-62981080D01*
X70051843Y-61645249D01*
X70709231Y-60288793D01*
X70975744Y-59588464D01*
X71178951Y-58865739D01*
X71110259Y-58540644D01*
X70944756Y-58309072D01*
X70707487Y-58163439D01*
X70423497Y-58096164D01*
X70117834Y-58099662D01*
X69815543Y-58166352D01*
X69541669Y-58288649D01*
X69321258Y-58458971D01*
X69313432Y-58455870D01*
X68443940Y-59793995D01*
X68302508Y-60101543D01*
X68055807Y-60451133D01*
X67811084Y-60792252D01*
X67675584Y-61074389D01*
X67367030Y-61624854D01*
X67088890Y-62212790D01*
X66526413Y-63398303D01*
X66193356Y-63944492D01*
X65793274Y-64425378D01*
X65301806Y-64815267D01*
X65014190Y-64968059D01*
X64694593Y-65088466D01*
X64830436Y-64279330D01*
X65047470Y-63470076D01*
X65343918Y-62676385D01*
X65718005Y-61913934D01*
X66167955Y-61198405D01*
X66691993Y-60545476D01*
X67288342Y-59970827D01*
X67955228Y-59490137D01*
X68234133Y-59522029D01*
X68350731Y-59561418D01*
X68420090Y-59621946D01*
X68443940Y-59793995D01*
X69313432Y-58455870D01*
X68905284Y-58294791D01*
X68460464Y-58180616D01*
X67994102Y-58120912D01*
X67521327Y-58123246D01*
X67057268Y-58195183D01*
X66617055Y-58344289D01*
X66215816Y-58578131D01*
X65868681Y-58904274D01*
X65562217Y-59157030D01*
X65229535Y-59511481D01*
X64953577Y-59789446D01*
X64862790Y-59844066D01*
X64817288Y-59812746D01*
X65089079Y-58880814D01*
X65291196Y-57911410D01*
X65407770Y-56922228D01*
X65422934Y-55930958D01*
X65320821Y-54955293D01*
X65085562Y-54012925D01*
X64701290Y-53121545D01*
X64448316Y-52700505D01*
X64152138Y-52298846D01*
X64375917Y-51909681D01*
X64633097Y-51590780D01*
X64927964Y-51324823D01*
X65264805Y-51094489D01*
X65280403Y-50859575D01*
X65252131Y-50658777D01*
X65184834Y-50490669D01*
X65083359Y-50353826D01*
X64797257Y-50168228D01*
X64432590Y-50090579D01*
X64028123Y-50109469D01*
X63622622Y-50213495D01*
X63254852Y-50391247D01*
X62963580Y-50631321D01*
X62623063Y-50854282D01*
X62254411Y-50963750D01*
X61864025Y-50984609D01*
X61458306Y-50941743D01*
X60626478Y-50764377D01*
X59810137Y-50630730D01*
X59032874Y-50583821D01*
X58251952Y-50594850D01*
X57472081Y-50662843D01*
X56697975Y-50786825D01*
X55934345Y-50965822D01*
X55185903Y-51198860D01*
X54457362Y-51484964D01*
X53753432Y-51823159D01*
X53078827Y-52212472D01*
X52438258Y-52651927D01*
X51836437Y-53140551D01*
X51278077Y-53677368D01*
X50767889Y-54261404D01*
X50310585Y-54891685D01*
X49910878Y-55567237D01*
X49573479Y-56287085D01*
X49393204Y-56855292D01*
X49251383Y-57469606D01*
X49170992Y-58102967D01*
X49175013Y-58728316D01*
X49286425Y-59318595D01*
X49528206Y-59846744D01*
X49705166Y-60079064D01*
X49923337Y-60285704D01*
X50185589Y-60463282D01*
X50494795Y-60608415D01*
X50973476Y-60647480D01*
X51448202Y-60637759D01*
X51916996Y-60581905D01*
X52377878Y-60482571D01*
X53267994Y-60164082D01*
X54102723Y-59703520D01*
X54866236Y-59122114D01*
X55542706Y-58441093D01*
X56116306Y-57681686D01*
X56571206Y-56865122D01*
X56565996Y-56514225D01*
X56439401Y-56265194D01*
X56224816Y-56114594D01*
X55955641Y-56058987D01*
X55665272Y-56094938D01*
X55387107Y-56219009D01*
X55154544Y-56427766D01*
X55000980Y-56717770D01*
X54136590Y-57668857D01*
X53657937Y-58134500D01*
X53147511Y-58556967D01*
X52604711Y-58908828D01*
X52028937Y-59162650D01*
X51419588Y-59291002D01*
X50776063Y-59266453D01*
X50543674Y-58834325D01*
X50442110Y-58371774D01*
X50449609Y-57889763D01*
X50544412Y-57399258D01*
X50704761Y-56911224D01*
X50908895Y-56436624D01*
X51361483Y-55571587D01*
X51787336Y-55029319D01*
X52260526Y-54525891D01*
X52776342Y-54062880D01*
X53330077Y-53641866D01*
X53917022Y-53264428D01*
X54532468Y-52932142D01*
X55171706Y-52646589D01*
X55830027Y-52409346D01*
X56502722Y-52221992D01*
X57185084Y-52086105D01*
X57872402Y-52003264D01*
X58559969Y-51975048D01*
X59243075Y-52003034D01*
X59917011Y-52088802D01*
X60577070Y-52233930D01*
X61218541Y-52439996D01*
X59870409Y-54758516D01*
X58470289Y-57046531D01*
X57062873Y-59327041D01*
X55692854Y-61623046D01*
X55036775Y-62615076D01*
X54382132Y-63641518D01*
X54028425Y-64127973D01*
X53642769Y-64575427D01*
X53214395Y-64968011D01*
X52732533Y-65289857D01*
X51397657Y-66667699D01*
X51106778Y-66831266D01*
X50750417Y-66936029D01*
X50359402Y-66979272D01*
X49964562Y-66958279D01*
X49596727Y-66870337D01*
X49286727Y-66712729D01*
X49065391Y-66482741D01*
X48963549Y-66177659D01*
X49108095Y-66175444D01*
X49261501Y-66179282D01*
X50381545Y-66410318D01*
X51397657Y-66667699D01*
X52732533Y-65289857D01*
X51900589Y-65244642D01*
X51072522Y-65114649D01*
X49392168Y-64806018D01*
X48967973Y-64729752D01*
X48575368Y-64778443D01*
X48228831Y-64933530D01*
X47942842Y-65176452D01*
X47731879Y-65488651D01*
X47610420Y-65851564D01*
X47592945Y-66246633D01*
X47693933Y-66655296D01*
X47823584Y-66977792D01*
X47993783Y-67263820D01*
X48200294Y-67514373D01*
X48438877Y-67730444D01*
X48995311Y-68063114D01*
X49629182Y-68269773D01*
X50306584Y-68358366D01*
X50993615Y-68336837D01*
X51656371Y-68213131D01*
X52260948Y-67995192D01*
X52678719Y-67662171D01*
X53117005Y-67352485D01*
X55033315Y-65709470D01*
X56136379Y-64486555D01*
X57141104Y-63199523D01*
X58070747Y-61863291D01*
X58948562Y-60492776D01*
X60641732Y-57708567D01*
X61503597Y-56324708D01*
X62406656Y-54966235D01*
X62734286Y-54405131D01*
X63072839Y-53868037D01*
X63156472Y-54481625D01*
X63195219Y-55094332D01*
X63148055Y-56313664D01*
X62951345Y-57519161D01*
X62625085Y-58703945D01*
X62189274Y-59861144D01*
X61663907Y-60983883D01*
X61068982Y-62065287D01*
X60424495Y-63098481D01*
X59920585Y-63689813D01*
X59343621Y-64205507D01*
X58705847Y-64645531D01*
X58019505Y-65009852D01*
X57296839Y-65298439D01*
X56550090Y-65511259D01*
X55791501Y-65648280D01*
X55033315Y-65709470D01*
X53117005Y-67352485D01*
X53476198Y-67165696D01*
X53854353Y-67058952D01*
X54254472Y-67061695D01*
X54679553Y-67203362D01*
X56116806Y-67145599D01*
X56839442Y-67052292D01*
X57555464Y-66911815D01*
X58257906Y-66721001D01*
X58939803Y-66476685D01*
X59594189Y-66175704D01*
X60214099Y-65814890D01*
X61411895Y-65005454D01*
X61973457Y-64544136D01*
X62452869Y-64013006D01*
X62399645Y-64356457D01*
X62407373Y-64691664D01*
X62470578Y-65014479D01*
X62583785Y-65320751D01*
X62741520Y-65606333D01*
X62938307Y-65867075D01*
X63168673Y-66098828D01*
X63427141Y-66297443D01*
X63708238Y-66458771D01*
X64006489Y-66578664D01*
X64316418Y-66652972D01*
X64632552Y-66677546D01*
X64949416Y-66648237D01*
X65261534Y-66560896D01*
X65563432Y-66411375D01*
X65849635Y-66195523D01*
X66154165Y-65983271D01*
X66419189Y-65919961D01*
X66539508Y-65952264D01*
X66653094Y-66031528D01*
X66864265Y-66343908D01*
X67054465Y-66525336D01*
X67252476Y-66656290D01*
X67666946Y-66786346D01*
X68097719Y-66773209D01*
X68534839Y-66656013D01*
X69388287Y-66265980D01*
X69784703Y-66071410D01*
X70147638Y-65929316D01*
X70462979Y-66170539D01*
X70807635Y-66305502D01*
X71171060Y-66352895D01*
X71542703Y-66331409D01*
X72268458Y-66156565D01*
X72900515Y-65930497D01*
X72901401Y-65931678D01*
X74789658Y-64083138D01*
X75320154Y-63559033D01*
X75586283Y-63288043D01*
X75806797Y-62992471D01*
X75613690Y-63612895D01*
X75360898Y-64277810D01*
X75202431Y-64577832D01*
X75017417Y-64830033D01*
X74801978Y-65014767D01*
X74552241Y-65112386D01*
X74489498Y-64812206D01*
X74521044Y-64545696D01*
X74627543Y-64305219D01*
X74789658Y-64083138D01*
X72901401Y-65931678D01*
X73072979Y-66179949D01*
X73267162Y-66380719D01*
X73481174Y-66537118D01*
X73712244Y-66652275D01*
X74214464Y-66771389D01*
X74751638Y-66763102D01*
X75301585Y-66652456D01*
X75842119Y-66464492D01*
X76351058Y-66224252D01*
X76806220Y-65956778D01*
X77526063Y-65347529D01*
X78173689Y-64670281D01*
X78766695Y-63941843D01*
X79322676Y-63179026D01*
X80393945Y-61617489D01*
X80944426Y-60852389D01*
X81528264Y-60120147D01*
X81218274Y-60686292D01*
X80866946Y-61241848D01*
X80136376Y-62349705D01*
X79805189Y-62916262D01*
X79528770Y-63500741D01*
X79331145Y-64110271D01*
X79236340Y-64751979D01*
X79333825Y-65172349D01*
X79537552Y-65538761D01*
X79825986Y-65844777D01*
X80177592Y-66083957D01*
X80570835Y-66249860D01*
X80984178Y-66336046D01*
X81396085Y-66336076D01*
X81785022Y-66243509D01*
X80305599Y-68828364D01*
X79532562Y-70022996D01*
X79116903Y-70637060D01*
X78667784Y-71222959D01*
X78174680Y-71751194D01*
X77627068Y-72192268D01*
X77014423Y-72516684D01*
X76680424Y-72625926D01*
X76326219Y-72694942D01*
X76174040Y-72353967D01*
X76174113Y-72012015D01*
X76296905Y-71676263D01*
X76512881Y-71353889D01*
X76792506Y-71052073D01*
X77106248Y-70777991D01*
X77717939Y-70341745D01*
X79030468Y-69532854D01*
X80305599Y-68828364D01*
X81785022Y-66243509D01*
X81506324Y-66585854D01*
X81167297Y-66859439D01*
X80783799Y-67083268D01*
X80371688Y-67276347D01*
X79525058Y-67646280D01*
X79122256Y-67861144D01*
X78754273Y-68121282D01*
X77377033Y-68921682D01*
X76681774Y-69385939D01*
X76034554Y-69903955D01*
X75474720Y-70484023D01*
X75041623Y-71134432D01*
X74884896Y-71488605D01*
X74774609Y-71863474D01*
X74715680Y-72260073D01*
X74713028Y-72679439D01*
X74814113Y-73116654D01*
X75014222Y-73485185D01*
X75295779Y-73781656D01*
X75641209Y-74002691D01*
X76032936Y-74144915D01*
X76453383Y-74204952D01*
X76884976Y-74179425D01*
X77310138Y-74064958D01*
X78147135Y-73744232D01*
X78918135Y-73300833D01*
X79629029Y-72755331D01*
X80285709Y-72128296D01*
X80894066Y-71440298D01*
X81459992Y-70711908D01*
X82488117Y-69216232D01*
X82996753Y-68383497D01*
X83573634Y-67614916D01*
X83901888Y-67271134D01*
X84264269Y-66963130D01*
X84666465Y-66697484D01*
X85114166Y-66480777D01*
X85796952Y-66009662D01*
X86454474Y-65502745D01*
X87702072Y-64401409D01*
X88873656Y-63216570D01*
X89985924Y-61988028D01*
X90608299Y-62506285D01*
X91297608Y-62976585D01*
X92038905Y-63375944D01*
X92817243Y-63681380D01*
X93617677Y-63869909D01*
X94425261Y-63918547D01*
X94827063Y-63883224D01*
X95225048Y-63804310D01*
X95617348Y-63678931D01*
X96002094Y-63504215D01*
X96266827Y-63321056D01*
X96473659Y-63112721D01*
X96626371Y-62882933D01*
X96728744Y-62635415D01*
X96784560Y-62373890D01*
X96797600Y-62102082D01*
X96710477Y-61542507D01*
X96497627Y-60986475D01*
X96189301Y-60463772D01*
X95815750Y-60004181D01*
X95407224Y-59637489D01*
X95140061Y-59371813D01*
X94949930Y-59146430D01*
X94926378Y-59055530D01*
X94973238Y-58982720D01*
X95107559Y-58930672D01*
X95346394Y-58902060D01*
X96093056Y-58739484D01*
X96859259Y-58519657D01*
X97619047Y-58234719D01*
X98346467Y-57876811D01*
X99015561Y-57438075D01*
X99600375Y-56910650D01*
X100074954Y-56286678D01*
X100262794Y-55936030D01*
X100413342Y-55558299D01*
X100395445Y-55290572D01*
X100333757Y-55054148D01*
X100232776Y-54846252D01*
X100096998Y-54664113D01*
X99739038Y-54366009D01*
X99295856Y-54137651D01*
X98297727Y-53801426D01*
X97814732Y-53649189D01*
X97390418Y-53477954D01*
X96800237Y-53376063D01*
X96147766Y-53360275D01*
X95551207Y-53343455D01*
X95310833Y-53307429D01*
X95128762Y-53238470D01*
X95595091Y-52602945D01*
X95977547Y-51910315D01*
X96268964Y-51174365D01*
X96462179Y-50408880D01*
X96550028Y-49627644D01*
X96525345Y-48844442D01*
X96380967Y-48073058D01*
X96109729Y-47327277D01*
X95929176Y-47083668D01*
X95727205Y-46898556D01*
X95506828Y-46767436D01*
X95271061Y-46685805D01*
X94765411Y-46652987D01*
X94234368Y-46764065D01*
X93702045Y-46983000D01*
X93192556Y-47273756D01*
X92730013Y-47600294D01*
X92338530Y-47926577D01*
X92169732Y-48034813D01*
X91981623Y-48207566D01*
X91601556Y-48584235D01*
X91436639Y-48706958D01*
X91306494Y-48731810D01*
X91224641Y-48618196D01*
X91204602Y-48325518D01*
X91014841Y-47369307D01*
X90725484Y-46444131D01*
X90521660Y-46014476D01*
X90266779Y-45618135D01*
X89952122Y-45263624D01*
X89568969Y-44959464D01*
X89299717Y-44766569D01*
X88990577Y-44634493D01*
X88661202Y-44554979D01*
X88331245Y-44519771D01*
X87751689Y-44740095D01*
X87269731Y-45084929D01*
X86869670Y-45528402D01*
X86535810Y-46044644D01*
X86252451Y-46607786D01*
X86003895Y-47191957D01*
X85548395Y-48319908D01*
X85473771Y-48475259D01*
X85362302Y-48480488D01*
X85222561Y-48374116D01*
X85063123Y-48194661D01*
X84719443Y-47770583D01*
X84552349Y-47603000D01*
X84399850Y-47516413D01*
X83950753Y-47141129D01*
X83457567Y-46846466D01*
X82929314Y-46626214D01*
X82375020Y-46474165D01*
X81803710Y-46384110D01*
X81224408Y-46349841D01*
X80646139Y-46365149D01*
X80077928Y-46423826D01*
X79715824Y-46707469D01*
X79455014Y-47048711D01*
X79282607Y-47437004D01*
X79185717Y-47861799D01*
X79151454Y-48312547D01*
X79166930Y-48778700D01*
X79295547Y-49715024D01*
X79224529Y-49615215D01*
X78721634Y-49552723D01*
X78396898Y-49474492D01*
X78297871Y-49394716D01*
X78239222Y-49269293D01*
X78237509Y-48825894D01*
X77965495Y-48680716D01*
X77675066Y-48640192D01*
X77373022Y-48679776D01*
X77066161Y-48774918D01*
X76465188Y-49033687D01*
X75926539Y-49220111D01*
X74490673Y-50220714D01*
X74256566Y-50616722D01*
X73890623Y-51010153D01*
X73317765Y-51491807D01*
X73870134Y-50786141D01*
X74169427Y-50457639D01*
X74490673Y-50220714D01*
X75926539Y-49220111D01*
X75842524Y-49049494D01*
X75727839Y-48908238D01*
X75428600Y-48712083D01*
X75073108Y-48628202D01*
X74705646Y-48653147D01*
X75032430Y-48386113D01*
X75396699Y-48005519D01*
X75743339Y-47551744D01*
X76017235Y-47065170D01*
X76163273Y-46586176D01*
X76171122Y-46362141D01*
X76126338Y-46155143D01*
X76022033Y-45970231D01*
X75851317Y-45812451D01*
X75607300Y-45686851D01*
X75283094Y-45598479D01*
X74679069Y-45817578D01*
X74146238Y-46156868D01*
X73667564Y-46584354D01*
X73226007Y-47068038D01*
X72386093Y-48076012D01*
X71953659Y-48536309D01*
X71490191Y-48924817D01*
X71191497Y-48889975D01*
X70901281Y-48906594D01*
X70622702Y-48969975D01*
X70358920Y-49075417D01*
X70588363Y-48810538D01*
X71256668Y-48003561D01*
X71955890Y-47184334D01*
X72269019Y-46755745D01*
X72532186Y-46306834D01*
X72726160Y-45831849D01*
X72831712Y-45325037D01*
X72555351Y-45012853D01*
X72415675Y-44939873D01*
X72276088Y-44914973D01*
X72000432Y-44987436D01*
X71734897Y-45186281D01*
X71485993Y-45467545D01*
X71260231Y-45787268D01*
X70904181Y-46366243D01*
X70035505Y-47459496D01*
X69567233Y-47955509D01*
X69321988Y-48149059D01*
X69068338Y-48290379D01*
X69597173Y-47337408D01*
X70212182Y-46435461D01*
X71569811Y-44707735D01*
X72246974Y-43843503D01*
X72879399Y-42953391D01*
X73434356Y-42018171D01*
X73879118Y-41018619D01*
X73863456Y-40790864D01*
X73810347Y-40603490D01*
X73724814Y-40454638D01*
X73611879Y-40342449D01*
X73323899Y-40220627D01*
X72986590Y-40223156D01*
X72640137Y-40335167D01*
X72324723Y-40541791D01*
X72080532Y-40828161D01*
X71947749Y-41179406D01*
X71414378Y-41948556D01*
X70827446Y-42734210D01*
X70208859Y-43440831D01*
X69894541Y-43734651D01*
X69580525Y-43972886D01*
X68745139Y-45268636D01*
X68595130Y-45462792D01*
X68330114Y-45792991D01*
X68083084Y-46171861D01*
X67616108Y-46987213D01*
X67140444Y-47732043D01*
X66882557Y-48022761D01*
X66602339Y-48229548D01*
X66747904Y-47787160D01*
X66934180Y-47360357D01*
X67417324Y-46563637D01*
X68028675Y-45859645D01*
X68745139Y-45268636D01*
X69580525Y-43972886D01*
X69125216Y-43779643D01*
X68668715Y-43736952D01*
X68216724Y-43815031D01*
X67774942Y-43984094D01*
X67349070Y-44214359D01*
X66944809Y-44476042D01*
X66223920Y-44974523D01*
X66099985Y-44818209D01*
X66001790Y-44596237D01*
X65810768Y-44086232D01*
X65682013Y-43863653D01*
X65507146Y-43706327D01*
X65268201Y-43646981D01*
X64947217Y-43718343D01*
X64785031Y-43900438D01*
X64639831Y-44000392D01*
X64503343Y-44036621D01*
X64367297Y-44027541D01*
X64063444Y-43947117D01*
X63662098Y-43906445D01*
X63461150Y-43951553D01*
X63269623Y-44073497D01*
X62930929Y-44385581D01*
X62791812Y-44494567D01*
X62678213Y-44518079D01*
X62594159Y-44415540D01*
X62543672Y-44146372D01*
X62341616Y-43945152D01*
X62118270Y-43862855D01*
X61881964Y-43868837D01*
X61641030Y-43932452D01*
X61178593Y-44110005D01*
X60973751Y-44162653D01*
X60797599Y-44150358D01*
X60082250Y-45352352D01*
X59697922Y-46198464D01*
X59200350Y-47031973D01*
X58598395Y-47791441D01*
X58261041Y-48124212D01*
X57900914Y-48415435D01*
X58027099Y-47967061D01*
X58216975Y-47535363D01*
X58459624Y-47121358D01*
X58744124Y-46726064D01*
X59395001Y-45995681D01*
X60082250Y-45352352D01*
X60797599Y-44150358D01*
X60429161Y-43992708D01*
X60004715Y-43936651D01*
X59603940Y-43954117D01*
X59306513Y-44017033D01*
X58058748Y-44827762D01*
X57061770Y-45879773D01*
X56044562Y-46973568D01*
X55501955Y-47468474D01*
X54922591Y-47892634D01*
X54295904Y-48218983D01*
X53611327Y-48420455D01*
X53501946Y-48012264D01*
X53489828Y-47585961D01*
X53559863Y-47153301D01*
X53696945Y-46726036D01*
X53885963Y-46315920D01*
X54111810Y-45934705D01*
X54613555Y-45305991D01*
X55391507Y-44010536D01*
X55362259Y-43932633D01*
X55395526Y-43825623D01*
X55689901Y-43513557D01*
X56396292Y-42777412D01*
X57151372Y-42085851D01*
X57558649Y-41786373D01*
X57991872Y-41533539D01*
X58455633Y-41339182D01*
X58954523Y-41215136D01*
X59076700Y-41449855D01*
X59140522Y-41679006D01*
X59151133Y-41901790D01*
X59113679Y-42117405D01*
X58915149Y-42523935D01*
X58586089Y-42892198D01*
X58167654Y-43215796D01*
X57701000Y-43488331D01*
X57227282Y-43703405D01*
X56787656Y-43854621D01*
X56423558Y-43987107D01*
X56001273Y-44075258D01*
X55623143Y-44092069D01*
X55482617Y-44065284D01*
X55391507Y-44010536D01*
X54613555Y-45305991D01*
X55054238Y-45380116D01*
X55514483Y-45400220D01*
X56448800Y-45309892D01*
X57326793Y-45098057D01*
X58058748Y-44827762D01*
X59306513Y-44017033D01*
X59559575Y-43831794D01*
X59787993Y-43610212D01*
X60162608Y-43081119D01*
X60413783Y-42475953D01*
X60524946Y-41840916D01*
X60479523Y-41222205D01*
X60392913Y-40933410D01*
X60260941Y-40666021D01*
X60081536Y-40425814D01*
X59852626Y-40218563D01*
X59572139Y-40050044D01*
X59238005Y-39926031D01*
X58770749Y-39899422D01*
X58315567Y-39926032D01*
X57872526Y-40001741D01*
X57441693Y-40122429D01*
X56616923Y-40482262D01*
X55841797Y-40972573D01*
X55116857Y-41560403D01*
X54442643Y-42212791D01*
X53819697Y-42896779D01*
X53248559Y-43579408D01*
X52861601Y-43414658D01*
X52522145Y-43114182D01*
X52254088Y-42724936D01*
X52081325Y-42293879D01*
X52027751Y-41867966D01*
X52053127Y-41671613D01*
X52117262Y-41494156D01*
X52223141Y-41341463D01*
X52373753Y-41219405D01*
X52572084Y-41133851D01*
X52821120Y-41090670D01*
X53399535Y-41322554D01*
X53720702Y-41395729D01*
X54022933Y-41414610D01*
X54276048Y-41359861D01*
X54449866Y-41212146D01*
X54514206Y-40952127D01*
X54438888Y-40560470D01*
X54265393Y-40370901D01*
X54060841Y-40211840D01*
X53584691Y-39977740D01*
X53062690Y-39843175D01*
X52547088Y-39793149D01*
X52547088Y-39793149D01*
D11*
X113000000Y-30000000D02*
X113000000Y-36000000D01*
D10*
X112000000Y-30000000D02*
X112000000Y-32000000D01*
X111000000Y-30000000D02*
X111000000Y-32000000D01*
X110000000Y-30000000D02*
X110000000Y-32000000D01*
X109000000Y-30000000D02*
X109000000Y-32000000D01*
D11*
X108000000Y-30000000D02*
X108000000Y-34000000D01*
D10*
X107000000Y-30000000D02*
X107000000Y-32000000D01*
X106000000Y-30000000D02*
X106000000Y-32000000D01*
X105000000Y-30000000D02*
X105000000Y-32000000D01*
X104000000Y-30000000D02*
X104000000Y-32000000D01*
D11*
X103000000Y-30000000D02*
X103000000Y-36000000D01*
D10*
X102000000Y-30000000D02*
X102000000Y-32000000D01*
X101000000Y-30000000D02*
X101000000Y-32000000D01*
X100000000Y-30000000D02*
X100000000Y-32000000D01*
X99000000Y-30000000D02*
X99000000Y-32000000D01*
D11*
X98000000Y-30000000D02*
X98000000Y-34000000D01*
D10*
X97000000Y-30000000D02*
X97000000Y-32000000D01*
X96000000Y-30000000D02*
X96000000Y-32000000D01*
X95000000Y-30000000D02*
X95000000Y-32000000D01*
X94000000Y-30000000D02*
X94000000Y-32000000D01*
D11*
X93000000Y-30000000D02*
X93000000Y-36000000D01*
D10*
X92000000Y-30000000D02*
X92000000Y-32000000D01*
X91000000Y-30000000D02*
X91000000Y-32000000D01*
X90000000Y-30000000D02*
X90000000Y-32000000D01*
X89000000Y-30000000D02*
X89000000Y-32000000D01*
D11*
X88000000Y-30000000D02*
X88000000Y-34000000D01*
D10*
X87000000Y-30000000D02*
X87000000Y-32000000D01*
X86000000Y-30000000D02*
X86000000Y-32000000D01*
X85000000Y-30000000D02*
X85000000Y-32000000D01*
X84000000Y-30000000D02*
X84000000Y-32000000D01*
D11*
X83000000Y-30000000D02*
X83000000Y-36000000D01*
D10*
X82000000Y-30000000D02*
X82000000Y-32000000D01*
X81000000Y-30000000D02*
X81000000Y-32000000D01*
X80000000Y-30000000D02*
X80000000Y-32000000D01*
X79000000Y-30000000D02*
X79000000Y-32000000D01*
D11*
X78000000Y-30000000D02*
X78000000Y-34000000D01*
D10*
X77000000Y-30000000D02*
X77000000Y-32000000D01*
X76000000Y-30000000D02*
X76000000Y-32000000D01*
X75000000Y-30000000D02*
X75000000Y-32000000D01*
X74000000Y-30000000D02*
X74000000Y-32000000D01*
D11*
X73000000Y-30000000D02*
X73000000Y-36000000D01*
D10*
X72000000Y-30000000D02*
X72000000Y-32000000D01*
X71000000Y-30000000D02*
X71000000Y-32000000D01*
X70000000Y-30000000D02*
X70000000Y-32000000D01*
X69000000Y-30000000D02*
X69000000Y-32000000D01*
D11*
X68000000Y-30000000D02*
X68000000Y-34000000D01*
D10*
X67000000Y-30000000D02*
X67000000Y-32000000D01*
X66000000Y-30000000D02*
X66000000Y-32000000D01*
X65000000Y-30000000D02*
X65000000Y-32000000D01*
X64000000Y-30000000D02*
X64000000Y-32000000D01*
D11*
X63000000Y-30000000D02*
X63000000Y-36000000D01*
D10*
X62000000Y-30000000D02*
X62000000Y-32000000D01*
X61000000Y-30000000D02*
X61000000Y-32000000D01*
X60000000Y-30000000D02*
X60000000Y-32000000D01*
X59000000Y-30000000D02*
X59000000Y-32000000D01*
D11*
X58000000Y-30000000D02*
X58000000Y-34000000D01*
D10*
X57000000Y-30000000D02*
X57000000Y-32000000D01*
X56000000Y-30000000D02*
X56000000Y-32000000D01*
X55000000Y-30000000D02*
X55000000Y-32000000D01*
X54000000Y-30000000D02*
X54000000Y-32000000D01*
D11*
X53000000Y-30000000D02*
X53000000Y-36000000D01*
D10*
X52000000Y-30000000D02*
X52000000Y-32000000D01*
X51000000Y-30000000D02*
X51000000Y-32000000D01*
X50000000Y-30000000D02*
X50000000Y-32000000D01*
X49000000Y-30000000D02*
X49000000Y-32000000D01*
D11*
X48000000Y-30000000D02*
X48000000Y-34000000D01*
D10*
X47000000Y-30000000D02*
X47000000Y-32000000D01*
X46000000Y-30000000D02*
X46000000Y-32000000D01*
X45000000Y-30000000D02*
X45000000Y-32000000D01*
X44000000Y-30000000D02*
X44000000Y-32000000D01*
D11*
X43000000Y-30000000D02*
X43000000Y-36000000D01*
D10*
X42000000Y-30000000D02*
X42000000Y-32000000D01*
X41000000Y-30000000D02*
X41000000Y-32000000D01*
X40000000Y-30000000D02*
X40000000Y-32000000D01*
X39000000Y-30000000D02*
X39000000Y-32000000D01*
D11*
X38000000Y-30000000D02*
X38000000Y-34000000D01*
D10*
X37000000Y-30000000D02*
X37000000Y-32000000D01*
X36000000Y-30000000D02*
X36000000Y-32000000D01*
X35000000Y-30000000D02*
X35000000Y-32000000D01*
X34000000Y-30000000D02*
X34000000Y-32000000D01*
D11*
X33000000Y-30000000D02*
X33000000Y-36000000D01*
D10*
X111740000Y-84000000D02*
X111740000Y-82000000D01*
D11*
X109200000Y-84000000D02*
X109200000Y-78000000D01*
D10*
X106660000Y-84000000D02*
X106660000Y-82000000D01*
X104120000Y-84000000D02*
X104120000Y-82000000D01*
X101580000Y-84000000D02*
X101580000Y-82000000D01*
X99040000Y-84000000D02*
X99040000Y-82000000D01*
D11*
X96500000Y-84000000D02*
X96500000Y-80000000D01*
D10*
X93960000Y-84000000D02*
X93960000Y-82000000D01*
X91420000Y-84000000D02*
X91420000Y-82000000D01*
X88880000Y-84000000D02*
X88880000Y-82000000D01*
X86340000Y-84000000D02*
X86340000Y-82000000D01*
D11*
X83800000Y-84000000D02*
X83800000Y-78000000D01*
D10*
X81260000Y-84000000D02*
X81260000Y-82000000D01*
X78720000Y-84000000D02*
X78720000Y-82000000D01*
X76180000Y-84000000D02*
X76180000Y-82000000D01*
X73640000Y-84000000D02*
X73640000Y-82000000D01*
D11*
X71100000Y-84000000D02*
X71100000Y-80000000D01*
D10*
X68560000Y-84000000D02*
X68560000Y-82000000D01*
X66020000Y-84000000D02*
X66020000Y-82000000D01*
X63480000Y-84000000D02*
X63480000Y-82000000D01*
X60940000Y-84000000D02*
X60940000Y-82000000D01*
D11*
X58400000Y-84000000D02*
X58400000Y-78000000D01*
D10*
X55860000Y-84000000D02*
X55860000Y-82000000D01*
X53320000Y-84000000D02*
X53320000Y-82000000D01*
X50780000Y-84000000D02*
X50780000Y-82000000D01*
X48240000Y-84000000D02*
X48240000Y-82000000D01*
D11*
X45700000Y-84000000D02*
X45700000Y-80000000D01*
D10*
X43160000Y-84000000D02*
X43160000Y-82000000D01*
X40620000Y-84000000D02*
X40620000Y-82000000D01*
X38080000Y-84000000D02*
X38080000Y-82000000D01*
X35540000Y-84000000D02*
X35540000Y-82000000D01*
D11*
X33000000Y-84000000D02*
X33000000Y-78000000D01*
X33000000Y-57000000D02*
X31000000Y-57000000D01*
D10*
X33000000Y-72000000D02*
X33000000Y-72000000D01*
X33000000Y-71000000D02*
X33000000Y-71000000D01*
X33000000Y-70000000D02*
X33000000Y-70000000D01*
X33000000Y-65000000D02*
X33000000Y-65000000D01*
X33000000Y-59999999D02*
X33000000Y-59999999D01*
X35257420Y-69802500D02*
X35604720Y-71772116D01*
X37446270Y-69216003D02*
X38130300Y-71095388D01*
X39500020Y-68258329D02*
X40500010Y-69990380D01*
X41356260Y-66958577D02*
X42641810Y-68490666D01*
X42958570Y-65356239D02*
X44490670Y-66641815D01*
X44258340Y-63500002D02*
X45990380Y-64500002D01*
X45216000Y-61446265D02*
X47095390Y-62130305D01*
X45802500Y-59257429D02*
X47772110Y-59604725D01*
D11*
X46000010Y-57000000D02*
X48000000Y-57000000D01*
D10*
X45802500Y-54742571D02*
X47772110Y-54395275D01*
X45216000Y-52553735D02*
X47095390Y-51869695D01*
X44258340Y-50499998D02*
X45990380Y-49499998D01*
X42958570Y-48643761D02*
X44490670Y-47358185D01*
X41356260Y-47041423D02*
X42641810Y-45509334D01*
X39500020Y-45741671D02*
X40500010Y-44009620D01*
X37446270Y-44783997D02*
X38130300Y-42904612D01*
X35257420Y-44197500D02*
X35604720Y-42227884D01*
D11*
X33000000Y-44000000D02*
X33000000Y-42000000D01*
D10*
X34133020Y-69950531D02*
X34220220Y-70946726D01*
X36364650Y-69557036D02*
X36623470Y-70522962D01*
X38494050Y-68782002D02*
X38916670Y-69688310D01*
X40456490Y-67648978D02*
X41030080Y-68468130D01*
X42192390Y-66192388D02*
X42899490Y-66899495D01*
X43648980Y-64456492D02*
X44468130Y-65030068D01*
X44782000Y-62494034D02*
X45688310Y-62916653D01*
X45557050Y-60364645D02*
X46522960Y-60623464D01*
X45950530Y-58133024D02*
X46946720Y-58220180D01*
X45950530Y-55866976D02*
X46946720Y-55779820D01*
X45557050Y-53635355D02*
X46522960Y-53376536D01*
X44782000Y-51505966D02*
X45688310Y-51083347D01*
X43648980Y-49543508D02*
X44468130Y-48969932D01*
X42192390Y-47807612D02*
X42899490Y-47100505D01*
X40456490Y-46351022D02*
X41030080Y-45531870D01*
X38494050Y-45217998D02*
X38916670Y-44311690D01*
X36364650Y-44442964D02*
X36623470Y-43477038D01*
X34133020Y-44049469D02*
X34220220Y-43053274D01*
D11*
X33000000Y-70000000D02*
X33000000Y-72000000D01*
X33000000Y-54000001D02*
X33000000Y-49000000D01*
X33000000Y-59999999D02*
X33000000Y-65000000D01*
D10*
X33520940Y-59954422D02*
X34389190Y-64878462D01*
X34026050Y-59819077D02*
X35736160Y-64517540D01*
X34500000Y-59598075D02*
X37000000Y-63928202D01*
X34928360Y-59298132D02*
X38142310Y-63128355D01*
X35298140Y-58928362D02*
X39128360Y-62142301D01*
X35598080Y-58500000D02*
X39928190Y-61000001D01*
X35819080Y-58026061D02*
X40517550Y-59736163D01*
X35954420Y-57520945D02*
X40878470Y-58389187D01*
D11*
X36000000Y-57000000D02*
X40999990Y-57000000D01*
D10*
X35954420Y-56479055D02*
X40878470Y-55610813D01*
X35819080Y-55973939D02*
X40517550Y-54263837D01*
X35598080Y-55500000D02*
X39928190Y-52999999D01*
X35298140Y-55071638D02*
X39128360Y-51857699D01*
X34928360Y-54701868D02*
X38142310Y-50871645D01*
X34500000Y-54401925D02*
X37000000Y-50071798D01*
X34026050Y-54180923D02*
X35736160Y-49482460D01*
X33520940Y-54045578D02*
X34389190Y-49121538D01*
M02*
